<?xml version="1.0" encoding="UTF-8"?>
<!-- Generator: visioncortex VTracer 0.6.2 -->
<svg version="1.1" xmlns="http://www.w3.org/2000/svg" width="1280" height="1280">
<path d="M0 0 C422.4 0 844.8 0 1280 0 C1280 261.69 1280 523.38 1280 793 C1154.93 793 1029.86 793 901 793 C900 792 900 792 899.8671875 789.85546875 C899.87105469 788.53482422 899.87105469 788.53482422 899.875 787.1875 C899.87242187 786.31480469 899.86984375 785.44210937 899.8671875 784.54296875 C900 782 900 782 900.49822998 780.13647461 C901.05037957 777.78549004 901.14100699 775.68758603 901.16113281 773.2734375 C901.17554413 771.86916504 901.17554413 771.86916504 901.19024658 770.43652344 C901.19449646 769.4262207 901.19874634 768.41591797 901.203125 767.375 C901.20882507 766.31829102 901.21452515 765.26158203 901.22039795 764.17285156 C901.22985019 761.92676797 901.23638282 759.68067049 901.24023438 757.43457031 C901.24980638 754.06809488 901.28077025 750.70226612 901.3125 747.3359375 C902.08770265 726.17554772 902.08770265 726.17554772 897 706 C896.814375 704.081875 896.814375 704.081875 896.625 702.125 C895.78724559 693.98307433 893.50337339 686.12229357 890.8125 678.4140625 C889.81313074 675.44478266 888.94686443 672.44295725 888.0625 669.4375 C886.71287278 665.00887531 885.17133129 661.0433041 882.9765625 656.98046875 C881.88266804 654.76205078 881.14524759 652.53783494 880.375 650.1875 C875.92188794 637.58203711 868.74356513 625.75113572 861.49609375 614.56640625 C860.17211048 612.29523913 859.44304971 610.56726067 859 608 C858.34 608 857.68 608 857 608 C855.7109375 606.3203125 855.7109375 606.3203125 854.375 604.125 C853.92898438 603.40570312 853.48296875 602.68640625 853.0234375 601.9453125 C852 600 852 600 852 598 C851.34 598 850.68 598 850 598 C848.4921875 596.3203125 848.4921875 596.3203125 846.875 594.125 C846.33617187 593.40570312 845.79734375 592.68640625 845.2421875 591.9453125 C844 590 844 590 844 588 C843.34 588 842.68 588 842 588 C840.0546875 585.8828125 840.0546875 585.8828125 837.875 583.125 C837.15054688 582.22007812 836.42609375 581.31515625 835.6796875 580.3828125 C834 578 834 578 834 576 C833.34 576 832.68 576 832 576 C830.375 574.625 830.375 574.625 829 573 C829 572.34 829 571.68 829 571 C828.34 571 827.68 571 827 571 C825.375 569.625 825.375 569.625 824 568 C824 567.34 824 566.68 824 566 C823.34 566 822.68 566 822 566 C820.375 564.625 820.375 564.625 819 563 C819 562.34 819 561.68 819 561 C818.45859375 560.7628125 817.9171875 560.525625 817.359375 560.28125 C814.36749863 558.65652243 811.88840601 556.6498123 809.25 554.5 C807.77273438 553.30890625 807.77273438 553.30890625 806.265625 552.09375 C805.14414063 551.05734375 805.14414063 551.05734375 804 550 C804 549.34 804 548.68 804 548 C803.33742188 547.79117188 802.67484375 547.58234375 801.9921875 547.3671875 C797.9154474 545.50444725 794.64773853 542.87076068 791.125 540.125 C786.23827956 536.32832306 781.43271581 532.97031326 776 530 C774.35104524 529.0051555 772.70488503 528.0056534 771.0625 527 C767.50038792 524.85737619 763.92586809 522.86963449 760.18359375 521.0625 C758.51849587 520.25229137 756.867188 519.41367818 755.22265625 518.5625 C749.40764841 515.56893097 743.6400447 513.00951406 737.4609375 510.8671875 C735.36659396 510.12918073 733.34449679 509.32937189 731.3125 508.4375 C723.02370136 504.84047418 714.69314161 502.57977959 705.93505859 500.47314453 C703.30170412 499.82925846 700.68393534 499.12811262 698.0625 498.4375 C658.2473916 488.65648539 615.2897938 489.6622732 575.7265625 500.03125 C572.34880092 500.90932639 568.96123521 501.70839585 565.5625 502.5 C561.16842136 503.59106702 557.19901128 505.04989449 553.1328125 507.03515625 C550.48231833 508.23418933 547.76136467 509.08646583 545 510 C539.73721471 512.07633326 534.52552714 514.20999488 529.5 516.8125 C527 518 527 518 523 518 C523 518.66 523 519.32 523 520 C522.175 520.38929688 521.35 520.77859375 520.5 521.1796875 C507.02024098 527.70894578 494.60456737 535.51310172 482.69555664 544.59667969 C478.19989619 548 478.19989619 548 476 548 C476 548.66 476 549.32 476 550 C474.30725716 551.56432787 472.54430148 553.05328572 470.75 554.5 C469.77546875 555.2940625 468.8009375 556.088125 467.796875 556.90625 C465.55105238 558.58748034 463.5534197 559.88135899 461 561 C461 561.66 461 562.32 461 563 C459.625 564.625 459.625 564.625 458 566 C457.34 566 456.68 566 456 566 C456 566.66 456 567.32 456 568 C454.625 569.625 454.625 569.625 453 571 C452.34 571 451.68 571 451 571 C450.5978125 571.9590625 450.5978125 571.9590625 450.1875 572.9375 C449 575 449 575 446 576 C444.94556501 577.83713975 444.94556501 577.83713975 444 580 C443.03327536 581.43957908 442.03215692 582.85658816 441 584.25 C440.2265625 585.30960938 440.2265625 585.30960938 439.4375 586.390625 C438.963125 586.92171875 438.48875 587.4528125 438 588 C437.34 588 436.68 588 436 588 C435.62875 588.804375 435.62875 588.804375 435.25 589.625 C433.69347463 592.5823982 431.96564327 595.29724051 430 598 C429.34 598 428.68 598 428 598 C427.731875 598.721875 427.46375 599.44375 427.1875 600.1875 C426.00098638 602.99766383 424.72514361 605.48416557 423 608 C422.34 608 421.68 608 421 608 C420.83564453 608.86625 420.83564453 608.86625 420.66796875 609.75 C419.91820946 612.27550499 418.85125992 613.86754531 417.3125 616 C414.31996328 620.37152039 411.94536334 624.8700969 409.63671875 629.6328125 C408.45634892 632.06116283 407.25501387 634.46732918 406.01953125 636.8671875 C402.2591282 644.1985125 398.8685496 651.49161932 396.01953125 659.23828125 C395.2027846 661.45069458 394.33524853 663.59805842 393.375 665.75 C390.14561601 673.38308942 388.17355094 681.16847756 386.35766602 689.23583984 C385.09632011 694.80735977 385.09632011 694.80735977 384 697 C383.79907217 698.49579604 383.63663934 699.99696724 383.5 701.5 C383.11111111 705.77777778 383.11111111 705.77777778 382 708 C379.10344619 722.21323388 378.58236358 736.18162002 378.71875 750.65136719 C378.750481 754.05154183 378.75979423 757.45125301 378.765625 760.8515625 C378.77477593 763.02604736 378.78514551 765.20052752 378.796875 767.375 C378.80324982 768.8904541 378.80324982 768.8904541 378.80975342 770.43652344 C378.81936096 771.37270508 378.82896851 772.30888672 378.83886719 773.2734375 C378.84569519 774.09247559 378.85252319 774.91151367 378.85955811 775.75537109 C378.99754656 777.96078753 379.43093635 779.87153604 380 782 C380.09021304 783.72731441 380.13010978 785.45783895 380.125 787.1875 C380.12886719 788.50814453 380.12886719 788.50814453 380.1328125 789.85546875 C380 792 380 792 379 793 C253.93 793 128.86 793 0 793 C0 531.31 0 269.62 0 0 Z M152 153 C152 176.76 152 200.52 152 225 C154.88577982 226.44288991 157.36766884 226.12541666 160.59398556 226.12584114 C161.62685104 226.1280213 161.62685104 226.1280213 162.68058249 226.13024551 C165.01094854 226.13392384 167.34124992 226.13041063 169.6716156 226.12698364 C171.34999773 226.12813474 173.0283796 226.12972218 174.70676094 226.13171089 C179.33689773 226.13590582 183.96701404 226.13381277 188.59715092 226.13072467 C193.5835879 226.12847144 198.57002125 226.13194981 203.55645752 226.13470459 C213.33230798 226.1391622 223.10815078 226.13818583 232.88400155 226.13529195 C240.82634024 226.13303775 248.76867678 226.13272546 256.7110157 226.13381577 C258.40366802 226.13404561 258.40366802 226.13404561 260.13051533 226.13428011 C262.42259407 226.13459982 264.71467281 226.13492403 267.00675154 226.1352527 C288.52378838 226.1381075 310.04082096 226.13482054 331.5578571 226.12945233 C350.03670179 226.1249849 368.51554019 226.12575973 386.99438477 226.13037109 C408.43047837 226.1357179 429.86656825 226.13783217 451.30266243 226.13475883 C453.58683113 226.13444027 455.87099983 226.1341259 458.15516853 226.13381577 C459.2791493 226.13366149 460.40313007 226.13350721 461.56117086 226.13334826 C469.4971814 226.13248338 477.43318958 226.13394538 485.36919975 226.13629532 C495.03601195 226.13909472 504.70281603 226.13835211 514.36962729 226.13301457 C519.30559188 226.13037937 524.2415429 226.12936945 529.1775074 226.13266373 C533.69077556 226.13563042 538.2040175 226.13402758 542.71728326 226.12868617 C544.35522 226.12756359 545.99315892 226.1281497 547.63109427 226.13056196 C549.84748599 226.13357725 552.06378644 226.13050961 554.2801733 226.12584114 C555.51431939 226.12567879 556.74846548 226.12551644 558.02000993 226.12534916 C561.05498618 226.13504827 561.05498618 226.13504827 564 225 C564 201.24 564 177.48 564 153 C428.04 153 292.08 153 152 153 Z M678 154 C677.88989996 156.16705924 677.85086077 158.33774719 677.83886719 160.50756836 C677.83390228 161.18725174 677.82893738 161.86693512 677.82382202 162.56721497 C677.80916816 164.82476803 677.80239343 167.08225086 677.796875 169.33984375 C677.7911266 170.9030406 677.78536884 172.46623742 677.77960205 174.0294342 C677.76908315 177.3105604 677.76324619 180.59166203 677.75976562 183.87280273 C677.75427618 188.08432625 677.73024258 192.2955272 677.70179367 196.50694942 C677.68320286 199.73679056 677.67796363 202.96655342 677.67642975 206.19644356 C677.67339507 207.74944385 677.66533925 209.3024425 677.65224457 210.85539055 C677.63525599 213.02485834 677.63704596 215.19353045 677.64355469 217.36303711 C677.63990906 218.59912216 677.63626343 219.83520721 677.63250732 221.10874939 C677.75377991 222.06286209 677.87505249 223.01697479 678 224 C681.59692248 226.39794832 684.16141009 226.27812756 688.31328678 226.24888897 C689.06747541 226.25149625 689.82166404 226.25410354 690.59870687 226.25678983 C693.14629669 226.26312653 695.69364343 226.2551041 698.2412262 226.24723816 C700.07792707 226.24882522 701.91462737 226.2512878 703.75132602 226.25455457 C708.81441532 226.26099071 713.87742511 226.25488248 718.9405092 226.24679029 C724.39453607 226.24023047 729.8485538 226.245158 735.30258179 226.24867249 C745.99304893 226.25372243 756.68348521 226.24806297 767.37394852 226.23882218 C779.81167528 226.22845609 792.24939529 226.22850789 804.68712556 226.22899476 C827.54254863 226.22951092 850.39795803 226.2194637 873.25337535 226.20449232 C894.13205401 226.19086623 915.01072122 226.18463109 935.8894043 226.18530273 C937.23010536 226.18534315 938.57080643 226.18538351 939.91150749 226.18542381 C940.57431468 226.18544416 941.23712186 226.18546452 941.92001411 226.18548548 C967.0899767 226.18624588 992.25993351 226.18059484 1017.42989435 226.17139288 C1026.10927974 226.16837115 1034.78866414 226.16731269 1043.46805 226.16686058 C1054.03773564 226.1661798 1064.60741216 226.1617341 1075.17709393 226.15252777 C1080.57470097 226.14789758 1085.97229631 226.14486876 1091.36990547 226.14612198 C1096.3037451 226.14721201 1101.23755881 226.14372947 1106.17139303 226.13647345 C1107.96338539 226.13465088 1109.75538041 226.13453873 1111.54737289 226.13624074 C1113.96913137 226.13828747 1116.39080344 226.13427444 1118.81255436 226.12863445 C1119.52037651 226.13068977 1120.22819866 226.13274509 1120.95746997 226.13486269 C1124.60166841 226.16352386 1124.60166841 226.16352386 1128 225 C1128 201.24 1128 177.48 1128 153 C1070.81707616 152.9774171 1013.63415338 152.95950107 956.45122597 152.94893467 C949.70796249 152.94768728 942.96469901 152.94639073 936.22143555 152.94506836 C935.55038194 152.9449376 934.87932833 152.94480684 934.18793976 152.94467212 C912.41761572 152.94040698 890.64729426 152.93289284 868.87697179 152.92370278 C845.88127666 152.91401302 822.88558261 152.90800639 799.88988537 152.90591151 C786.10594151 152.90453595 772.32200509 152.90018359 758.53806352 152.89208353 C749.09979655 152.88681803 739.66153345 152.88519526 730.22326512 152.88649862 C724.76909346 152.88714231 719.31493483 152.88612104 713.86076546 152.88079453 C708.8762837 152.87596195 703.89182384 152.87566041 698.90734112 152.87910111 C697.09576016 152.87952694 695.2841779 152.87823002 693.47259957 152.87511682 C691.02678796 152.87115514 688.58105736 152.87323515 686.13524723 152.87695217 C685.0586611 152.87301165 685.0586611 152.87301165 683.96032575 152.86899152 C680.69942878 152.60092237 680.69942878 152.60092237 678 154 Z M152 303 C152 327.09 152 351.18 152 376 C153.85110679 377.85110679 156.89401469 377.12521117 159.36836433 377.12534916 C160.0458904 377.12675148 160.72341647 377.1281538 161.42147363 377.12959861 C163.72486232 377.13311852 166.02818563 377.12942148 168.33157349 377.12584114 C169.99352352 377.12688289 171.65547333 377.12836309 173.31742263 377.13024551 C177.92723961 377.13417223 182.5370359 377.13179263 187.14685258 377.12846755 C192.14571959 377.12594745 197.14458324 377.12918413 202.14344978 377.13171089 C210.91876797 377.1353361 219.69408002 377.13520475 228.4693985 377.13266373 C241.51818119 377.12889545 254.56695866 377.13080756 267.61574131 377.13387203 C289.56249267 377.13884336 311.50924205 377.13901266 333.45599365 377.13629532 C334.45951683 377.13617113 334.45951683 377.13617113 335.48331321 377.13604442 C336.48843035 377.13592003 336.48843035 377.13592003 337.51385289 377.13579312 C357.90297335 377.13327302 378.2920928 377.13261711 398.68121338 377.13381577 C400.04493853 377.13389324 401.40866368 377.1339704 402.77238883 377.13404724 C408.25221295 377.13435768 413.73203708 377.13467635 419.2118612 377.135007 C434.53159113 377.13592415 449.85132107 377.13649465 465.17105103 377.13679314 C466.2176112 377.13681361 466.2176112 377.13681361 467.28531401 377.13683449 C489.5274796 377.13724395 511.76964483 377.13611592 534.0118103 377.13394356 C534.73353987 377.13387331 535.45526943 377.13380306 536.19886959 377.13373068 C547.92034145 377.13258564 559.6418133 377.13136622 571.36328516 377.13014051 C617.85612336 377.12528393 664.34895868 377.12550934 710.84179688 377.13037109 C722.55726115 377.13159222 734.27272542 377.13280324 745.9881897 377.13394356 C746.70948893 377.13401401 747.43078817 377.13408445 748.17394495 377.13415704 C770.39227967 377.13631223 792.61061415 377.13722768 814.82894897 377.13679314 C815.5261477 377.13677955 816.22334642 377.13676597 816.94167238 377.13675197 C832.24419332 377.13643954 847.54671423 377.13580598 862.84923515 377.13488263 C868.32425053 377.13455347 873.79926591 377.13424039 879.2742813 377.13393192 C880.63640504 377.13385453 881.99852879 377.1337758 883.36065253 377.13369573 C903.7459977 377.13250062 924.13134176 377.13352151 944.51668679 377.13604442 C945.18570224 377.13612722 945.8547177 377.13621001 946.54400635 377.13629532 C947.21179537 377.136378 947.87958439 377.13646068 948.56760944 377.13654587 C971.05687011 377.13929993 993.54612818 377.13829613 1016.03538847 377.13301457 C1029.01485345 377.13006731 1041.99431157 377.12990235 1054.97377638 377.13366075 C1063.62676453 377.13589098 1072.27974713 377.13452977 1080.93273445 377.13015598 C1085.87409304 377.12776068 1090.81543793 377.12699775 1095.75679612 377.13056196 C1100.24164878 377.13376416 1104.72647543 377.1324611 1109.21132615 377.1273813 C1110.8337021 377.12636436 1112.45608015 377.12706545 1114.07845446 377.12958724 C1116.26288069 377.13274482 1118.44721393 377.12987039 1120.63163567 377.12534916 C1121.84665697 377.1252814 1123.06167827 377.12521365 1124.3135184 377.12514383 C1126.91849873 377.30598044 1126.91849873 377.30598044 1128 376 C1128 351.91 1128 327.82 1128 303 C805.92 303 483.84 303 152 303 Z M152 454 C152 478.09 152 502.18 152 527 C225.59 527 299.18 527 375 527 C375 502.91 375 478.82 375 454 C373.15470765 452.15470765 370.54726128 452.87456109 368.09132242 452.86625659 C367.23501781 452.86848732 366.3787132 452.87071804 365.49645996 452.87301636 C364.59384603 452.87145637 363.6912321 452.86989638 362.76126623 452.86828911 C359.71257273 452.86427503 356.66392832 452.86747033 353.61523438 452.87060547 C351.43939688 452.86925161 349.26355961 452.86747176 347.08772278 452.86529541 C341.16021226 452.86071926 335.23271905 452.86251138 329.30520821 452.8656745 C323.11700517 452.86819716 316.92880367 452.86586082 310.74060059 452.86428833 C299.67966686 452.86234948 288.61874083 452.86546725 277.55780834 452.87054767 C267.51916648 452.87501571 257.48053618 452.87423978 247.44189453 452.86962891 C235.79782804 452.86430184 224.15376878 452.86228228 212.50970125 452.86524117 C206.34095259 452.86680438 200.1722119 452.86699653 194.00346375 452.86370468 C188.20547882 452.86082709 182.40751585 452.86279958 176.60953331 452.86859894 C174.474927 452.86992714 172.34031886 452.86953141 170.20571327 452.86733627 C167.30496348 452.86462713 164.40428521 452.86800299 161.50354004 452.87301636 C160.64723543 452.87078564 159.79093081 452.86855491 158.90867758 452.86625659 C155.14901553 452.51463437 155.14901553 452.51463437 152 454 Z M905 454 C905 478.09 905 502.18 905 527 C978.59 527 1052.18 527 1128 527 C1128 502.91 1128 478.82 1128 454 C1126.15470765 452.15470765 1123.54726128 452.87456109 1121.09132242 452.86625659 C1120.23501781 452.86848732 1119.3787132 452.87071804 1118.49645996 452.87301636 C1117.59384603 452.87145637 1116.6912321 452.86989638 1115.76126623 452.86828911 C1112.71257273 452.86427503 1109.66392832 452.86747033 1106.61523438 452.87060547 C1104.43939688 452.86925161 1102.26355961 452.86747176 1100.08772278 452.86529541 C1094.16021226 452.86071926 1088.23271905 452.86251138 1082.30520821 452.8656745 C1076.11700517 452.86819716 1069.92880367 452.86586082 1063.74060059 452.86428833 C1052.67966686 452.86234948 1041.61874083 452.86546725 1030.55780834 452.87054767 C1020.51916648 452.87501571 1010.48053618 452.87423978 1000.44189453 452.86962891 C988.79782804 452.86430184 977.15376878 452.86228228 965.50970125 452.86524117 C959.34095259 452.86680438 953.1722119 452.86699653 947.00346375 452.86370468 C941.20547882 452.86082709 935.40751585 452.86279958 929.60953331 452.86859894 C927.474927 452.86992714 925.34031886 452.86953141 923.20571327 452.86733627 C920.30496348 452.86462713 917.40428521 452.86800299 914.50354004 452.87301636 C913.64723543 452.87078564 912.79093081 452.86855491 911.90867758 452.86625659 C908.14901553 452.51463437 908.14901553 452.51463437 905 454 Z " fill="blue" transform="translate(0,0)"/>
<path d="M0 0 C0.89654297 0.19682373 1.79308594 0.39364746 2.71679688 0.59643555 C8.09605041 1.85476093 13.09906216 3.52773857 18.18115234 5.69580078 C20.63020302 6.67717442 23.08421236 7.41854457 25.625 8.125 C30.25908194 9.47361827 34.24824394 11.37407032 38.5 13.625 C40.19729781 14.4686154 41.89473188 15.31196585 43.59423828 16.15112305 C49.65538358 19.14797807 55.63480932 22.25794609 61.5 25.625 C61.5 26.285 61.5 26.945 61.5 27.625 C62.02078125 27.69847656 62.5415625 27.77195312 63.078125 27.84765625 C66.54195854 28.95943508 69.30160101 30.99214071 72.25 33.0625 C72.85199219 33.47048828 73.45398438 33.87847656 74.07421875 34.29882812 C75.58960812 35.35204092 77.0502034 36.48318043 78.5 37.625 C78.5 38.285 78.5 38.945 78.5 39.625 C79.03625 39.8725 79.5725 40.12 80.125 40.375 C83.0823982 41.93152537 85.79724051 43.65935673 88.5 45.625 C88.5 46.285 88.5 46.945 88.5 47.625 C89.16 47.625 89.82 47.625 90.5 47.625 C92.125 49 92.125 49 93.5 50.625 C93.5 51.285 93.5 51.945 93.5 52.625 C94.139375 52.893125 94.77875 53.16125 95.4375 53.4375 C97.5 54.625 97.5 54.625 98.5 57.625 C99.16 57.625 99.82 57.625 100.5 57.625 C102.0859375 59.19921875 102.0859375 59.19921875 103.875 61.3125 C104.49246094 62.04082031 105.10992188 62.76914062 105.74609375 63.51953125 C106.61427734 64.56173828 106.61427734 64.56173828 107.5 65.625 C108.304375 66.57375 109.10875 67.5225 109.9375 68.5 C111.5 70.625 111.5 70.625 111.5 72.625 C112.16 72.625 112.82 72.625 113.5 72.625 C116.5 77.00961538 116.5 77.00961538 116.5 79.625 C117.16 79.625 117.82 79.625 118.5 79.625 C118.5 80.615 118.5 81.605 118.5 82.625 C119.16 82.625 119.82 82.625 120.5 82.625 C121.62573242 84.03930664 121.62573242 84.03930664 122.85546875 86.03515625 C123.53681885 87.13802979 123.53681885 87.13802979 124.23193359 88.26318359 C124.71227051 89.06320801 125.19260742 89.86323242 125.6875 90.6875 C126.18072754 91.50299316 126.67395508 92.31848633 127.18212891 93.15869141 C131.51131566 100.43155533 135.14705829 107.86307195 138.5 115.625 C138.96019531 116.63820313 139.42039062 117.65140625 139.89453125 118.6953125 C142.91879938 125.5478838 144.91072251 132.41755374 146.703125 139.66796875 C147.20040851 142.49166157 147.20040851 142.49166157 148.5 143.625 C149.02269772 145.71877772 149.49210793 147.82592619 149.9375 149.9375 C150.18371094 151.08863281 150.42992187 152.23976563 150.68359375 153.42578125 C150.96055249 154.82457446 151.23214056 156.22443586 151.5 157.625 C151.66719543 158.49261459 151.83439087 159.36022919 152.00665283 160.25413513 C153.27562271 167.28412658 153.80740732 174.03578521 153.80078125 181.171875 C153.80506638 182.2267511 153.8093515 183.2816272 153.81376648 184.36846924 C153.81946548 186.58352954 153.82004311 188.79860855 153.81567383 191.01367188 C153.81252058 194.35319897 153.83600716 197.69183232 153.86132812 201.03125 C153.89584691 212.96437225 153.24808862 223.99777653 150.5 235.625 C150.15745172 237.43578106 149.82200588 239.24795334 149.5 241.0625 C148.54629452 245.73798298 147.10655414 250.1377281 145.5 254.625 C145.1390625 255.6871875 144.778125 256.749375 144.40625 257.84375 C141.58096482 266.0298327 138.27443761 273.83479245 134.5 281.625 C133.79037109 283.13900391 133.79037109 283.13900391 133.06640625 284.68359375 C129.98414348 291.10706278 126.43265095 296.97573667 122.39453125 302.84375 C120.71358019 305.31145548 119.15460055 307.81212947 117.625 310.375 C116.92375 311.4475 116.2225 312.52 115.5 313.625 C114.84 313.625 114.18 313.625 113.5 313.625 C113.19255859 314.65560547 113.19255859 314.65560547 112.87890625 315.70703125 C111.04065544 319.59704075 108.40892414 322.24376607 105.4375 325.3125 C101.53104422 329.14592838 101.53104422 329.14592838 98.5 333.625 C97.84 333.625 97.18 333.625 96.5 333.625 C96.17 334.615 95.84 335.605 95.5 336.625 C94.84 336.625 94.18 336.625 93.5 336.625 C93.5 337.285 93.5 337.945 93.5 338.625 C91.03507047 341.17255287 88.22774273 343.36499521 85.5 345.625 C84.613125 346.36363281 83.72625 347.10226562 82.8125 347.86328125 C75.77153641 353.625 75.77153641 353.625 73.5 353.625 C73.5 354.285 73.5 354.945 73.5 355.625 C71.62109375 357.03515625 71.62109375 357.03515625 68.9375 358.6875 C67.9371875 359.30496094 66.936875 359.92242188 65.90625 360.55859375 C64.7821875 361.24050781 63.658125 361.92242188 62.5 362.625 C61.26032998 363.38657766 60.02074916 364.14830053 58.78125 364.91015625 C47.07082534 372.06893674 35.56867082 377.48713585 22.57348633 381.89990234 C20.46071944 382.6387364 18.37396879 383.43055277 16.28515625 384.234375 C13.40213145 385.32649428 10.5966167 386.16343965 7.5625 386.75 C4.75054777 387.14674216 4.75054777 387.14674216 2.5 388.625 C0.37668948 388.912057 -1.7474611 389.07245791 -3.8828125 389.24609375 C-6.65231892 389.58657836 -6.65231892 389.58657836 -9.85546875 390.58984375 C-29.1351813 396.06586071 -64.14765706 398.80117147 -82.5 389.625 C-83.91298094 389.4469644 -85.33076636 389.30576947 -86.75 389.1875 C-91.48972203 388.70137466 -95.53406777 387.4315363 -99.9375 385.625 C-102.38944641 384.66814287 -104.85287764 383.95100891 -107.3828125 383.234375 C-108.08148437 383.03328125 -108.78015625 382.8321875 -109.5 382.625 C-110.34304688 382.38265625 -111.18609375 382.1403125 -112.0546875 381.890625 C-119.78953832 379.50099629 -126.77304882 376.14375593 -133.93359375 372.4296875 C-136.76267946 370.99810196 -139.5344558 369.73350785 -142.5 368.625 C-142.5 367.965 -142.5 367.305 -142.5 366.625 C-143.056875 366.521875 -143.61375 366.41875 -144.1875 366.3125 C-156.90837821 362.53061729 -168.78082635 350.55257177 -178.3203125 341.59375 C-180.33871669 339.59412338 -180.33871669 339.59412338 -182.5 338.625 C-182.5 337.965 -182.5 337.305 -182.5 336.625 C-183.49 336.295 -184.48 335.965 -185.5 335.625 C-185.5 334.965 -185.5 334.305 -185.5 333.625 C-186.16 333.625 -186.82 333.625 -187.5 333.625 C-190.04755287 331.16007047 -192.23999521 328.35274273 -194.5 325.625 C-195.23863281 324.738125 -195.97726562 323.85125 -196.73828125 322.9375 C-202.5 315.89653641 -202.5 315.89653641 -202.5 313.625 C-203.16 313.625 -203.82 313.625 -204.5 313.625 C-206.015625 311.53515625 -206.015625 311.53515625 -207.75 308.6875 C-209.94529493 305.12412273 -212.17020796 301.62129122 -214.5625 298.1875 C-218.0890177 292.94004167 -220.75290209 287.30649795 -223.5 281.625 C-224.20690975 280.27008964 -224.91505921 278.91582463 -225.625 277.5625 C-228.03339753 272.7556983 -229.71815908 267.68839796 -231.5 262.625 C-232.01681451 261.24848443 -232.537247 259.87331775 -233.0625 258.5 C-233.54395355 257.209184 -234.02312473 255.91751439 -234.5 254.625 C-234.74621094 253.965 -234.99242187 253.305 -235.24609375 252.625 C-237.6740214 245.78151482 -239.14334601 238.74920916 -240.5 231.625 C-240.6649295 230.76898697 -240.82985901 229.91297394 -240.99978638 229.03102112 C-242.2883993 221.91609491 -242.80734158 215.0821126 -242.80078125 207.859375 C-242.80506638 206.78230286 -242.8093515 205.70523071 -242.81376648 204.59552002 C-242.81946675 202.33338112 -242.82004215 200.0712239 -242.81567383 197.80908203 C-242.81252046 194.39713371 -242.83600606 190.98605998 -242.86132812 187.57421875 C-242.89625358 175.53738119 -242.3617088 164.34138389 -239.5 152.625 C-239.31622803 151.78066406 -239.13245605 150.93632813 -238.94311523 150.06640625 C-237.17298833 141.96809863 -234.89146055 134.19926191 -231.5 126.625 C-229.90099801 122.97927546 -228.43432275 119.43777733 -227.3125 115.625 C-223.59476154 104.23942598 -216.48007537 92.341396 -209.5 82.625 C-208.84 82.625 -208.18 82.625 -207.5 82.625 C-207.5 81.635 -207.5 80.645 -207.5 79.625 C-206.84 79.625 -206.18 79.625 -205.5 79.625 C-205.190625 78.84125 -204.88125 78.0575 -204.5625 77.25 C-203.5 74.625 -203.5 74.625 -202.5 72.625 C-201.84 72.625 -201.18 72.625 -200.5 72.625 C-200.09587891 71.76068359 -200.09587891 71.76068359 -199.68359375 70.87890625 C-198.4793982 68.58576819 -197.12488595 66.62580358 -195.5625 64.5625 C-195.05847656 63.89089844 -194.55445313 63.21929688 -194.03515625 62.52734375 C-192.60353998 60.75330527 -191.21626759 59.12614958 -189.5 57.625 C-188.84 57.625 -188.18 57.625 -187.5 57.625 C-187.5 56.965 -187.5 56.305 -187.5 55.625 C-186.84 55.625 -186.18 55.625 -185.5 55.625 C-185.17 54.635 -184.84 53.645 -184.5 52.625 C-183.84 52.625 -183.18 52.625 -182.5 52.625 C-182.5 51.965 -182.5 51.305 -182.5 50.625 C-180.92578125 49.0390625 -180.92578125 49.0390625 -178.8125 47.25 C-177.72001953 46.32380859 -177.72001953 46.32380859 -176.60546875 45.37890625 C-175.91066406 44.80011719 -175.21585937 44.22132813 -174.5 43.625 C-173.55125 42.820625 -172.6025 42.01625 -171.625 41.1875 C-169.5 39.625 -169.5 39.625 -167.5 39.625 C-167.5 38.965 -167.5 38.305 -167.5 37.625 C-165.26360773 35.82288734 -163.03217136 34.14935503 -160.6875 32.5 C-159.72360352 31.79810547 -159.72360352 31.79810547 -158.74023438 31.08203125 C-153.87720937 27.625 -153.87720937 27.625 -150.5 27.625 C-150.5 26.965 -150.5 26.305 -150.5 25.625 C-147.51018547 23.93968449 -144.50615846 22.2809684 -141.5 20.625 C-140.93200684 20.30901855 -140.36401367 19.99303711 -139.77880859 19.66748047 C-132.67863737 15.72799395 -125.74146978 12.06704544 -118.015625 9.48046875 C-115.59449897 8.65713552 -113.28560141 7.69782254 -110.9375 6.6875 C-100.39581226 2.4202248 -88.74286971 -0.68199477 -77.5 -2.375 C-76.32953125 -2.55933594 -75.1590625 -2.74367188 -73.953125 -2.93359375 C-49.40569915 -6.40622839 -24.16344976 -5.30747345 0 0 Z M-81.5 158.625 C-81.520625 170.319375 -81.54125 182.01375 -81.5625 194.0625 C-81.571604 197.76009521 -81.58070801 201.45769043 -81.59008789 205.26733398 C-81.59343155 208.57111312 -81.59343155 208.57111312 -81.59544373 211.87489319 C-81.59698306 213.35068564 -81.60050776 214.8264768 -81.60557556 216.30226135 C-81.6128548 218.53282875 -81.61390736 220.76331905 -81.61352539 222.99389648 C-81.615746 224.25298325 -81.61796661 225.51207001 -81.62025452 226.80931091 C-81.82207726 229.52835295 -81.82207726 229.52835295 -80.5 230.625 C-78.26612794 230.7246392 -76.02906141 230.75299795 -73.79296875 230.75439453 C-72.74177353 230.75702301 -72.74177353 230.75702301 -71.66934204 230.75970459 C-69.34203651 230.76412266 -67.01480636 230.76118529 -64.6875 230.7578125 C-63.07706691 230.75848555 -61.46663391 230.75945559 -59.85620117 230.76071167 C-56.47671545 230.76218858 -53.0972561 230.76003431 -49.71777344 230.75537109 C-45.37623495 230.7496738 -41.03475827 230.75295285 -36.69322205 230.75894356 C-33.36649099 230.76254936 -30.0397747 230.7614105 -26.71304321 230.75881577 C-25.11178582 230.75814655 -23.5105271 230.75897474 -21.90927124 230.76129532 C-19.67515489 230.76382216 -17.44114 230.75998085 -15.20703125 230.75439453 C-13.9331958 230.75359894 -12.65936035 230.75280334 -11.34692383 230.75198364 C-8.60037863 230.950344 -8.60037863 230.950344 -7.5 229.625 C-7.40567015 227.41632169 -7.38257569 225.20458479 -7.38647461 222.99389648 C-7.38629381 221.93806791 -7.38629381 221.93806791 -7.38610935 220.86090946 C-7.38685833 218.57260589 -7.39448583 216.28438283 -7.40234375 213.99609375 C-7.40381322 212.58728067 -7.4048339 211.17846705 -7.40539551 209.76965332 C-7.41064784 204.53392724 -7.42460893 199.29821284 -7.4375 194.0625 C-7.4684375 176.5209375 -7.4684375 176.5209375 -7.5 158.625 C-31.92 158.625 -56.34 158.625 -81.5 158.625 Z " fill="blue" transform="translate(684.5,559.375)"/>
<path d="M0 0 C3.55029236 0.45966307 6.22800865 1.46810006 9.3125 3.25 C10.10140625 3.70246094 10.8903125 4.15492188 11.703125 4.62109375 C13.68698418 5.81208404 15.62521044 7.04811854 17.5625 8.3125 C27.04217088 14.31565831 37.50001798 19.10088387 48 23 C49.21171875 23.47179687 50.4234375 23.94359375 51.671875 24.4296875 C62.59130231 28.65630582 73.57750587 32.15629275 85.0546875 34.5703125 C88.07665304 35.23781493 91.02927995 36.13579053 94 37 C106.80607111 40.59468663 120.08651965 41.51531003 133.3125 42.25 C134.50131271 42.31737366 134.50131271 42.31737366 135.71414185 42.3861084 C159.52369655 43.67521464 184.91308617 43.37567415 208 37 C209.3207246 36.66315766 210.64236657 36.32989443 211.96484375 36 C212.61501465 35.83628906 213.26518555 35.67257812 213.93505859 35.50390625 C214.59586426 35.33761719 215.25666992 35.17132812 215.9375 35 C216.63697754 34.82339844 217.33645508 34.64679687 218.05712891 34.46484375 C221.65057315 33.56377113 225.24229731 32.72524546 228.875 32 C232.94109638 31.12814252 236.62777924 29.61364026 240.453125 28.00390625 C243.00538024 26.99787926 245.54511124 26.23266234 248.1875 25.5 C251.91910328 24.42636609 254.9136452 23.04123725 258.203125 21.01171875 C260.17207043 19.90311687 262.12900807 19.153916 264.25 18.375 C275.34425642 14.08044913 286.85785138 8.24624923 296.2109375 0.86328125 C298 0 298 0 303 1 C303 98.02 303 195.04 303 295 C301.68 295.66 300.36 296.32 299 297 C296.46069336 295.94873047 296.46069336 295.94873047 293.58984375 294.1171875 C292.52749512 293.45066162 291.46514648 292.78413574 290.37060547 292.09741211 C289.22604818 291.35689981 288.08168417 290.61608869 286.9375 289.875 C285.75500389 289.12555739 284.57156351 288.37760269 283.38720703 287.63110352 C281.01302797 286.13111928 278.64475268 284.62249166 276.28173828 283.10498047 C273.49656918 281.3185106 270.70372105 279.54603823 267.90234375 277.78515625 C264.86958204 275.87880285 261.84103073 273.96611334 258.81640625 272.046875 C253.32986676 268.57011986 247.82179452 265.12804691 242.3125 261.6875 C241.30300293 261.05706787 240.29350586 260.42663574 239.25341797 259.77709961 C237.19587228 258.4923985 235.13825468 257.20781255 233.08056641 255.92333984 C228.05253513 252.78410777 223.02634659 249.64192849 218 246.5 C216.00000915 245.24998536 214.00000914 243.99998538 212 242.75 C200 235.25 200 235.25 196.99536133 233.37207031 C195.0108602 232.13177733 193.0263229 230.89154221 191.04174805 229.65136719 C185.80430538 226.37834254 180.56763773 223.10408618 175.33203125 219.828125 C174.24083984 219.14556641 173.14964844 218.46300781 172.02539062 217.75976562 C169.93401308 216.45154222 167.8428557 215.14296678 165.75195312 213.83398438 C164.80900391 213.24423828 163.86605469 212.65449219 162.89453125 212.046875 C162.06800049 211.52963867 161.24146973 211.01240234 160.38989258 210.47949219 C159.60122803 209.99125977 158.81256348 209.50302734 158 209 C157.13979248 208.43829102 156.27958496 207.87658203 155.39331055 207.29785156 C152.19406099 205.562953 150.43494104 206.0076837 147 207 C146.34 207.66 145.68 208.32 145 209 C144.01 209 143.02 209 142 209 C142 209.66 142 210.32 142 211 C139.09451118 213.04169485 137.59857954 214 134 214 C134 214.66 134 215.32 134 216 C131.09451118 218.04169485 129.59857954 219 126 219 C126 219.66 126 220.32 126 221 C125.113125 221.495 124.22625 221.99 123.3125 222.5 C118.43773928 225.26702607 113.7225907 228.29438733 108.98828125 231.29296875 C106.53090926 232.69672242 104.75475861 233.55092743 102 234 C102 234.66 102 235.32 102 236 C99.09451118 238.04169485 97.59857954 239 94 239 C94 239.66 94 240.32 94 241 C91.09451118 243.04169485 89.59857954 244 86 244 C86 244.66 86 245.32 86 246 C85.113125 246.495 84.22625 246.99 83.3125 247.5 C78.43773928 250.26702607 73.7225907 253.29438733 68.98828125 256.29296875 C66.53090926 257.69672242 64.75475861 258.55092743 62 259 C62 259.66 62 260.32 62 261 C59.09451118 263.04169485 57.59857954 264 54 264 C54 264.66 54 265.32 54 266 C51.09451118 268.04169485 49.59857954 269 46 269 C46 269.66 46 270.32 46 271 C44.6696875 271.7425 44.6696875 271.7425 43.3125 272.5 C38.43773928 275.26702607 33.7225907 278.29438733 28.98828125 281.29296875 C26.53090926 282.69672242 24.75475861 283.55092743 22 284 C22 284.66 22 285.32 22 286 C19.09451118 288.04169485 17.59857954 289 14 289 C14 289.66 14 290.32 14 291 C11.09451118 293.04169485 9.59857954 294 6 294 C6 294.66 6 295.32 6 296 C3.625 296.625 3.625 296.625 1 297 C-1 295 -1 295 -1.24954766 292.86761707 C-1.24933029 291.97581637 -1.24911292 291.08401566 -1.24888897 290.1651907 C-1.25578716 288.62396515 -1.25578716 288.62396515 -1.26282471 287.05160373 C-1.25768115 285.91417274 -1.25253759 284.77674174 -1.24723816 283.60484314 C-1.24965257 282.40327546 -1.25206699 281.20170778 -1.25455457 279.96372896 C-1.25923113 276.61803289 -1.25488272 273.27256425 -1.24679029 269.92688882 C-1.24023036 266.3229135 -1.24515801 262.718952 -1.24867249 259.11497498 C-1.25372234 252.05093134 -1.24806314 244.98693439 -1.23882218 237.92289656 C-1.22845627 229.70462539 -1.22850789 221.48636441 -1.22899476 213.26808793 C-1.22949577 198.60994913 -1.22032323 183.95183211 -1.20581055 169.29370117 C-1.19171978 155.05443932 -1.18463985 140.81519665 -1.18530273 126.57592773 C-1.18534269 125.69884188 -1.18538265 124.82175603 -1.18542381 123.91809183 C-1.18546417 123.04255557 -1.18550452 122.16701931 -1.1855461 121.26495165 C-1.18623514 105.0760153 -1.1803508 88.88708714 -1.17139288 72.69815345 C-1.16837079 66.96283565 -1.16731265 61.22751936 -1.16686058 55.49220085 C-1.16617992 48.5083128 -1.16173583 41.52443855 -1.15252777 34.54055636 C-1.14789651 30.97391945 -1.14486914 27.40730023 -1.14612198 23.8406601 C-1.14741133 19.98315047 -1.14099555 16.12567673 -1.13371277 12.26817322 C-1.13526137 11.1285115 -1.13680997 9.98884978 -1.1384055 8.81465286 C-1.13518106 7.78977691 -1.13195661 6.76490096 -1.12863445 5.70896816 C-1.12793003 4.81732981 -1.1272256 3.92569146 -1.12649983 3.00703377 C-1 1 -1 1 0 0 Z " fill="blue" transform="translate(489,982)"/>
</svg>
