<?xml version="1.0" encoding="UTF-8"?>
<!-- Generator: visioncortex VTracer 0.6.2 -->
<svg version="1.1" xmlns="http://www.w3.org/2000/svg" width="1280" height="1280">
<path d="M0 0 C26.07 0 52.14 0 79 0 C79 49.17 79 98.34 79 149 C128.17 149 177.34 149 228 149 C228 174.74 228 200.48 228 227 C215.59277344 226.93039063 203.18554688 226.86078125 190.40234375 226.7890625 C182.55012274 226.7584115 174.697945 226.72928012 166.84570312 226.70703125 C154.37753505 226.6714199 141.90961013 226.62954066 129.44165039 226.54736328 C120.36153864 226.48754404 111.28162403 226.44884673 102.20132071 226.43546903 C97.3936339 226.42764954 92.58651104 226.40928387 87.77900505 226.36561966 C83.25219487 226.32483868 78.72617993 226.31234195 74.19920349 226.32135391 C72.5395532 226.31970571 70.87987583 226.30780291 69.2203846 226.28476715 C59.23184451 225.80585978 59.23184451 225.80585978 50.58277893 230.04257202 C49.73046188 231.01852325 48.87814484 231.99447449 48 233 C47.34 233 46.68 233 46 233 C46 233.66 46 234.32 46 235 C44.30725716 236.56432787 42.54430148 238.05328572 40.75 239.5 C39.77546875 240.2940625 38.8009375 241.088125 37.796875 241.90625 C35.55105238 243.58748034 33.5534197 244.88135899 31 246 C31 246.66 31 247.32 31 248 C29.46804728 249.37212301 27.87078919 250.6715446 26.25 251.9375 C21.23948632 255.92771453 16.51710299 260.12098493 11.88574219 264.54467773 C8.21110302 268 8.21110302 268 6 268 C6 268.66 6 269.32 6 270 C3.8828125 271.9453125 3.8828125 271.9453125 1.125 274.125 C0.22007813 274.84945313 -0.68484375 275.57390625 -1.6171875 276.3203125 C-4 278 -4 278 -6 278 C-6.33 278.99 -6.66 279.98 -7 281 C-7.66 281 -8.32 281 -9 281 C-9 281.66 -9 282.32 -9 283 C-11.1171875 284.9453125 -11.1171875 284.9453125 -13.875 287.125 C-14.77992187 287.84945313 -15.68484375 288.57390625 -16.6171875 289.3203125 C-19 291 -19 291 -21 291 C-21 291.66 -21 292.32 -21 293 C-26.47619048 298 -26.47619048 298 -29 298 C-29 298.66 -29 299.32 -29 300 C-30.69274284 301.56432787 -32.45569852 303.05328572 -34.25 304.5 C-35.22453125 305.2940625 -36.1990625 306.088125 -37.203125 306.90625 C-39.44894762 308.58748034 -41.4465803 309.88135899 -44 311 C-44 311.66 -44 312.32 -44 313 C-49.47619048 318 -49.47619048 318 -52 318 C-52 318.66 -52 319.32 -52 320 C-53.55240341 321.39325954 -55.17029985 322.71380128 -56.8125 324 C-61.90206934 328.06508828 -66.71305918 332.30867127 -71.4921875 336.73828125 C-78.43523316 343 -78.43523316 343 -81 343 C-81.33 343.99 -81.66 344.98 -82 346 C-83.73226275 347.60812665 -85.5345009 349.14197316 -87.375 350.625 C-88.35210938 351.42164063 -89.32921875 352.21828125 -90.3359375 353.0390625 C-93 355 -93 355 -96 356 C-96 356.66 -96 357.32 -96 358 C-98 359.625 -98 359.625 -100 361 C-99.37244024 364.4231856 -98.06548993 366.63113714 -96.05078125 369.44921875 C-95.44943359 370.29806641 -94.84808594 371.14691406 -94.22851562 372.02148438 C-93.59623047 372.90126953 -92.96394531 373.78105469 -92.3125 374.6875 C-89.86750693 378.11974579 -87.42791858 381.55565107 -85 385 C-84.40751465 385.83998535 -83.8150293 386.6799707 -83.20458984 387.54541016 C-82.3820874 388.7391626 -82.3820874 388.7391626 -81.54296875 389.95703125 C-80.80663208 391.01821167 -80.80663208 391.01821167 -80.05541992 392.10083008 C-79 394 -79 394 -79 397 C-78.34 397 -77.68 397 -77 397 C-75.265625 399.421875 -75.265625 399.421875 -73.25 402.75 C-72.89583008 403.33402588 -72.54166016 403.91805176 -72.17675781 404.51977539 C-69.32034946 409.29955881 -66.80257502 414.21161341 -64.421875 419.24609375 C-63.02688934 422.07733745 -63.02688934 422.07733745 -61.09375 424.8359375 C-58.67192564 428.49578402 -56.70280577 432.26380692 -54.75 436.1875 C-54.38648438 436.89841797 -54.02296875 437.60933594 -53.6484375 438.34179688 C-51 443.63369361 -51 443.63369361 -51 447 C-50.34 447 -49.68 447 -49 447 C-48.78085937 447.58265625 -48.56171875 448.1653125 -48.3359375 448.765625 C-46.45419954 453.63060608 -44.38909596 458.29877307 -42 462.9375 C-39.58557982 467.66927824 -37.66565237 472.39756078 -35.93359375 477.4140625 C-35.04777402 479.86767197 -34.03669931 482.19818451 -32.9375 484.5625 C-31.14613032 488.47284393 -29.94966296 492.41524188 -28.77734375 496.546875 C-28.03190332 498.89932018 -27.12181054 501.02421132 -26.0625 503.25 C-23.78346724 508.16335199 -22.4275343 513.25099778 -21 518.46484375 C-20.09947953 521.64832431 -19.08783205 524.75173219 -18 527.875 C-15.53131918 535.13582594 -13.79829835 542.55204768 -12 550 C-11.48074536 552.04206874 -10.96005409 554.08377308 -10.4375 556.125 C-8.79006022 562.71475913 -7.38615188 569.35116978 -6 576 C-5.80277344 576.89847656 -5.60554688 577.79695312 -5.40234375 578.72265625 C-4.29267423 583.90933378 -3.6969617 588.99577269 -3.28125 594.28125 C-2.92422119 597.7325285 -2.20443626 601.05353582 -1.47265625 604.44140625 C-0.78599405 608.15846195 -0.51171844 611.88480982 -0.24609375 615.65234375 C-0.06946358 618.15094335 -0.06946358 618.15094335 1 621 C1.13554403 622.53203185 1.22399317 624.06851871 1.28125 625.60546875 C1.31863281 626.50716797 1.35601563 627.40886719 1.39453125 628.33789062 C1.42933594 629.27826172 1.46414063 630.21863281 1.5 631.1875 C1.56982497 633.03527567 1.64269838 634.88293888 1.71875 636.73046875 C1.74904297 637.54926514 1.77933594 638.36806152 1.81054688 639.21166992 C1.97426054 642.13465146 1.97426054 642.13465146 2.50927734 645.54614258 C3.23841235 651.19321798 3.14293681 656.84612015 3.1328125 662.53125 C3.13376923 663.7217395 3.13472595 664.912229 3.13571167 666.13879395 C3.1363898 668.64672906 3.13456119 671.15466595 3.13037109 673.66259766 C3.12501771 677.48734504 3.13032861 681.31197499 3.13671875 685.13671875 C3.1360579 687.58072942 3.13477661 690.02474003 3.1328125 692.46875 C3.13584885 694.17375671 3.13584885 694.17375671 3.13894653 695.91320801 C3.12193061 701.71471209 2.82438729 707.25971935 2 713 C1.88075893 714.75496424 1.78378353 716.51172337 1.71875 718.26953125 C1.68136719 719.17767578 1.64398437 720.08582031 1.60546875 721.02148438 C1.53441924 722.901665 1.46412186 724.78187418 1.39453125 726.66210938 C1.35714844 727.56380859 1.31976562 728.46550781 1.28125 729.39453125 C1.23581055 730.61426636 1.23581055 730.61426636 1.18945312 731.85864258 C1 734 1 734 0 737 C-0.31967819 739.7288893 -0.60760277 742.45353478 -0.875 745.1875 C-1.65169681 752.65492809 -2.81929773 759.95985292 -4.28125 767.3203125 C-4.92650626 770.623744 -5.48178352 773.92477756 -6 777.25 C-6.81940726 782.28935467 -7.99570613 787.18131458 -9.27734375 792.12109375 C-10.15125243 795.60255696 -10.85202754 799.10208832 -11.53515625 802.625 C-11.99718669 804.98562609 -12.4878683 807.33725219 -13 809.6875 C-13.144375 810.35136719 -13.28875 811.01523437 -13.4375 811.69921875 C-15.05055784 818.2970734 -17.20191104 824.69521325 -19.375 831.125 C-21.41416713 837.18661936 -23.41225381 843.24917936 -25.25 849.375 C-26.56814109 853.73715335 -28.1761508 857.82034558 -30 862 C-30.65752112 863.9753145 -31.30218797 865.95493095 -31.9375 867.9375 C-33.32769603 872.19266276 -34.91274904 876.07692261 -37.0078125 880.0234375 C-38.11150492 882.22213186 -38.99291491 884.45366278 -39.875 886.75 C-41.81231701 891.72729667 -44.19138248 896.41778476 -46.6171875 901.171875 C-48.34838436 904.7125149 -49.65889917 908.29600724 -51 912 C-51.9711225 914.01418 -52.9605998 916.0201901 -54 918 C-54.66 918 -55.32 918 -56 918 C-56.11214844 918.71542969 -56.22429688 919.43085937 -56.33984375 920.16796875 C-57.04456005 923.19115998 -58.13287798 925.56322688 -59.5625 928.3125 C-60.01753906 929.19550781 -60.47257813 930.07851563 -60.94140625 930.98828125 C-61.29074219 931.65214844 -61.64007812 932.31601562 -62 933 C-62.66 933 -63.32 933 -64 933 C-64.12818115 933.58918213 -64.2563623 934.17836426 -64.38842773 934.78540039 C-65.35612529 938.28958585 -67.26331458 941.30446783 -69.0625 944.4375 C-69.46154541 945.13746094 -69.86059082 945.83742188 -70.27172852 946.55859375 C-71.5056149 948.71101021 -72.75011131 950.85684043 -74 953 C-74.38768555 953.66531738 -74.77537109 954.33063477 -75.17480469 955.01611328 C-76.25152664 956.85082144 -77.34089705 958.67711895 -78.4375 960.5 C-79.07558594 961.5621875 -79.71367188 962.624375 -80.37109375 963.71875 C-80.90863281 964.4715625 -81.44617188 965.224375 -82 966 C-82.66 966 -83.32 966 -84 966 C-84.11609619 966.58539551 -84.23219238 967.17079102 -84.35180664 967.77392578 C-85.04216267 970.14479821 -85.93293556 971.62112542 -87.37109375 973.6171875 C-88.10223389 974.64211304 -88.10223389 974.64211304 -88.84814453 975.68774414 C-89.37263184 976.40953857 -89.89711914 977.13133301 -90.4375 977.875 C-91.52736485 979.39191192 -92.61720824 980.90883927 -93.70703125 982.42578125 C-94.53195068 983.56781006 -94.53195068 983.56781006 -95.37353516 984.73291016 C-96.91815528 986.88591864 -98.43829142 989.05372646 -99.94921875 991.23046875 C-100.40176025 991.87838379 -100.85430176 992.52629883 -101.32055664 993.19384766 C-102.17709835 994.42086811 -103.02930036 995.65093169 -103.87670898 996.88427734 C-104.86818639 998.29246265 -105.92779341 999.65226622 -107 1001 C-107.66 1001 -108.32 1001 -109 1001 C-109.2475 1001.71542969 -109.495 1002.43085937 -109.75 1003.16796875 C-111.13863595 1006.31409706 -112.84463946 1008.63810963 -115 1011.3125 C-115.70125 1012.19550781 -116.4025 1013.07851563 -117.125 1013.98828125 C-117.74375 1014.65214844 -118.3625 1015.31601562 -119 1016 C-119.66 1016 -120.32 1016 -121 1016 C-121.2371875 1016.54140625 -121.474375 1017.0828125 -121.71875 1017.640625 C-123.34347757 1020.63250137 -125.3501877 1023.11159399 -127.5 1025.75 C-128.69109375 1027.22726562 -128.69109375 1027.22726562 -129.90625 1028.734375 C-130.5971875 1029.48203125 -131.288125 1030.2296875 -132 1031 C-132.66 1031 -133.32 1031 -134 1031 C-134 1031.66 -134 1032.32 -134 1033 C-134.66 1033 -135.32 1033 -136 1033 C-136.33 1033.99 -136.66 1034.98 -137 1036 C-137.66 1036 -138.32 1036 -139 1036 C-139.226875 1036.53625 -139.45375 1037.0725 -139.6875 1037.625 C-141 1040 -141 1040 -143.54207897 1042.5481205 C-146.93005442 1046.59498749 -146.70012357 1050.51079915 -146.63923645 1055.60507202 C-146.64759213 1056.56574982 -146.6559478 1057.52642762 -146.66455668 1058.51621687 C-146.6864845 1061.7317217 -146.67287969 1064.94608422 -146.65942383 1068.16162109 C-146.66787648 1070.46790433 -146.67852032 1072.77418043 -146.69119263 1075.08044434 C-146.71937235 1081.34031928 -146.71686128 1087.59985195 -146.70889878 1093.85977125 C-146.70577688 1100.40214071 -146.73079887 1106.94440055 -146.75285339 1113.48672485 C-146.78689942 1124.46723568 -146.80191783 1135.44766184 -146.80444336 1146.42822266 C-146.80709197 1157.73685748 -146.82021784 1169.04540032 -146.84741211 1180.35400391 C-146.84908549 1181.05138453 -146.85075887 1181.74876515 -146.85248295 1182.46727853 C-146.86094259 1185.96592783 -146.86960797 1189.46457658 -146.87837565 1192.96322513 C-146.95081479 1221.97547951 -146.98310809 1250.98765375 -147 1280 C-172.74 1280 -198.48 1280 -225 1280 C-225 1224.89 -225 1169.78 -225 1113 C-230.77160618 1116.26021529 -230.77160618 1116.26021529 -236 1120 C-238.86510712 1122.27232634 -241.85235391 1124.0921932 -245.04150391 1125.87988281 C-247.12399838 1127.07091805 -249.16214436 1128.31885774 -251.19921875 1129.5859375 C-258.66910048 1134.23156732 -266.08152266 1138.74000673 -274.0234375 1142.546875 C-277.50835693 1144.24817425 -280.90471801 1146.08804828 -284.3125 1147.9375 C-290.66617677 1151.36720883 -297.13529808 1154.4687249 -303.69921875 1157.47265625 C-306.255324 1158.65542211 -308.75615275 1159.88216651 -311.25 1161.1875 C-315.13502928 1163.16793792 -319.19264818 1164.56183933 -323.30078125 1166.0078125 C-325.64224318 1166.8684946 -327.86772804 1167.81840461 -330.125 1168.875 C-335.86838353 1171.50262393 -341.85369848 1173.47204554 -347.81640625 1175.53515625 C-350.5538325 1176.48322655 -353.26956619 1177.47228776 -355.9765625 1178.50390625 C-373.59382179 1185.15595896 -392.02119784 1190.1890728 -410.58203125 1193.32421875 C-413.85657485 1193.9716428 -416.85004223 1194.91096501 -420 1196 C-431.25179441 1198.73230758 -442.85628191 1200.06256374 -454.35180664 1201.30273438 C-457.38640615 1201.63963685 -460.09298326 1202.03099442 -463 1203 C-465.62818858 1203.18520792 -468.24358428 1203.32771978 -470.875 1203.4375 C-476.6738705 1203.70395963 -482.42583891 1204.11703944 -488.19599915 1204.75138855 C-499.46039 1205.9717894 -510.60785169 1206.27995911 -521.93139648 1206.20581055 C-524.82870241 1206.18739703 -527.72568801 1206.18530317 -530.62304688 1206.18554688 C-556.43804566 1206.13758449 -556.43804566 1206.13758449 -569 1204 C-570.4705952 1203.87811792 -571.94369726 1203.78222487 -573.41796875 1203.71875 C-574.58682617 1203.66267578 -574.58682617 1203.66267578 -575.77929688 1203.60546875 C-577.39646202 1203.534644 -579.01365 1203.46433885 -580.63085938 1203.39453125 C-581.40623047 1203.35714844 -582.18160156 1203.31976562 -582.98046875 1203.28125 C-584.03077271 1203.23581055 -584.03077271 1203.23581055 -585.10229492 1203.18945312 C-587 1203 -587 1203 -590 1202 C-592.58297856 1201.68147125 -595.16187101 1201.39336033 -597.75 1201.125 C-604.77488435 1200.35137065 -611.59064709 1199.18115284 -618.5078125 1197.71875 C-621.72725911 1197.05613459 -624.94036949 1196.50604631 -628.1875 1196 C-633.2780217 1195.17894811 -638.22200657 1194.01041884 -643.2109375 1192.71484375 C-645.57176449 1192.10975784 -647.92878893 1191.56691826 -650.3125 1191.0625 C-654.48674664 1190.15105899 -658.61901139 1189.08846688 -662.75 1188 C-664.00296875 1187.67 -665.2559375 1187.34 -666.546875 1187 C-669.47234635 1186.15280468 -672.17891116 1185.12843554 -675 1184 C-676.88886767 1183.51375684 -678.7854279 1183.05671196 -680.6875 1182.625 C-685.46711111 1181.46506999 -689.84265015 1179.94969084 -694.36328125 1178.03515625 C-697.40800203 1176.83982143 -700.48674739 1175.92089116 -703.625 1175 C-708.02745008 1173.68545109 -711.96007959 1172.18449911 -715.98681641 1169.99169922 C-718.02378453 1168.98828368 -720.00707788 1168.28558812 -722.171875 1167.60546875 C-734.95928591 1163.43458513 -747.05061359 1157.65889816 -758.84375 1151.2421875 C-763.07740555 1148.93893455 -767.3711266 1146.76841318 -771.6875 1144.625 C-772.33485107 1144.30337891 -772.98220215 1143.98175781 -773.64916992 1143.65039062 C-775.43229824 1142.76595524 -777.21613288 1141.88294431 -779 1141 C-781.00045188 1140.00090426 -783.00061463 1139.00122831 -785 1138 C-785 1137.34 -785 1136.68 -785 1136 C-785.72960937 1135.896875 -786.45921875 1135.79375 -787.2109375 1135.6875 C-790.26486321 1134.93471159 -792.07860619 1133.8201028 -794.625 1132 C-797.17796131 1130.18765887 -799.00688125 1128.99770625 -802 1128 C-802 1127.34 -802 1126.68 -802 1126 C-802.86625 1125.814375 -802.86625 1125.814375 -803.75 1125.625 C-806.02335767 1124.99351176 -807.9253529 1124.11141809 -810 1123 C-810 1122.34 -810 1121.68 -810 1121 C-810.86238281 1120.84724609 -810.86238281 1120.84724609 -811.7421875 1120.69140625 C-814.39203751 1119.87994699 -815.97199106 1118.66891213 -818.125 1116.9375 C-820.74762068 1114.60906996 -820.74762068 1114.60906996 -824 1114 C-824.495 1196.17 -824.495 1196.17 -825 1280 C-850.74 1280 -876.48 1280 -903 1280 C-903 1202.45 -903 1124.9 -903 1045 C-903.66 1045 -904.32 1045 -905 1045 C-905 1044.34 -905 1043.68 -905 1043 C-905.66 1043 -906.32 1043 -907 1043 C-908.41015625 1041.6015625 -908.41015625 1041.6015625 -910.0625 1039.625 C-913.68804524 1035.34165541 -917.46199548 1031.21627867 -921.27734375 1027.1015625 C-923 1025 -923 1025 -923 1023 C-923.66 1023 -924.32 1023 -925 1023 C-926.9453125 1020.8828125 -926.9453125 1020.8828125 -929.125 1018.125 C-930.21167969 1016.76761719 -930.21167969 1016.76761719 -931.3203125 1015.3828125 C-933 1013 -933 1013 -933 1011 C-933.66 1011 -934.32 1011 -935 1011 C-938 1007.53846154 -938 1007.53846154 -938 1005 C-938.66 1005 -939.32 1005 -940 1005 C-941.59375 1003.0859375 -941.59375 1003.0859375 -943.5 1000.375 C-944.20125 999.38371094 -944.9025 998.39242187 -945.625 997.37109375 C-946.00398437 996.83081543 -946.38296875 996.29053711 -946.7734375 995.73388672 C-948.0820192 993.88405646 -949.41350249 992.05240721 -950.75 990.22265625 C-951.66674789 988.96099651 -952.58341571 987.69927859 -953.5 986.4375 C-954.16805664 985.52653564 -954.16805664 985.52653564 -954.84960938 984.59716797 C-958 980.22643372 -958 980.22643372 -958 978 C-958.66 978 -959.32 978 -960 978 C-961.69140625 975.734375 -961.69140625 975.734375 -963.5625 972.75 C-964.18253906 971.77546875 -964.80257812 970.8009375 -965.44140625 969.796875 C-966.75937184 967.43180391 -967.54147441 965.63809243 -968 963 C-968.66 963 -969.32 963 -970 963 C-970.53625 962.030625 -971.0725 961.06125 -971.625 960.0625 C-973.24642017 957.20788703 -975.00469541 954.50967609 -976.875 951.8125 C-979.79099877 947.50031229 -982.02443446 943.00325182 -984.2890625 938.32421875 C-986.58755241 933.85843127 -989.18254234 929.59861736 -991.84106445 925.33935547 C-994.30368547 921.34729435 -996.17976259 917.33631242 -998 913 C-998.77018554 911.44304924 -999.55105051 909.89135675 -1000.33984375 908.34375 C-1003.29708072 902.48906295 -1005.93669618 896.50912108 -1008.5625 890.5 C-1009.03107422 889.43652344 -1009.49964844 888.37304688 -1009.98242188 887.27734375 C-1012.78072935 880.89798545 -1015.45090219 874.48260043 -1018 868 C-1018.42023437 866.95972656 -1018.84046875 865.91945313 -1019.2734375 864.84765625 C-1022.14292806 857.59252586 -1024.57151081 850.2568078 -1026.85693359 842.79907227 C-1028.00615817 839.06389573 -1029.20638449 835.38274808 -1030.609375 831.734375 C-1031.7021287 828.79990158 -1032.53391268 826.12003351 -1033.125 823.0625 C-1033.52174216 820.25054777 -1033.52174216 820.25054777 -1035 818 C-1035.144375 816.9275 -1035.28875 815.855 -1035.4375 814.75 C-1035.81501165 811.18233964 -1035.81501165 811.18233964 -1036.94140625 808.76171875 C-1038.27962768 805.27049161 -1038.87984268 801.73233204 -1039.5 798.0625 C-1040.32269202 793.22127389 -1041.38222936 788.64540564 -1043 784 C-1044.44087298 778.16116832 -1045.19778337 772.34509447 -1045.71875 766.36328125 C-1045.97946447 764.17255548 -1046.41211581 762.18493482 -1047 760.0625 C-1048.15049134 755.88664254 -1048.45597238 751.72888946 -1048.75390625 747.41796875 C-1048.92526906 744.85995186 -1048.92526906 744.85995186 -1050 742 C-1050.26016934 738.38653692 -1050.44236009 734.77875197 -1050.60546875 731.16015625 C-1050.7691855 727.90275738 -1050.96315698 725.11052906 -1052 722 C-1052.0965933 719.17077497 -1052.13640686 716.36637558 -1052.12939453 713.53710938 C-1052.13114685 712.67342239 -1052.13289917 711.80973541 -1052.13470459 710.9198761 C-1052.13911061 708.06114704 -1052.13618949 705.2024797 -1052.1328125 702.34375 C-1052.1334859 700.35982247 -1052.13445622 698.37589502 -1052.13571167 696.39196777 C-1052.13718695 692.23249527 -1052.13503952 688.07304423 -1052.13037109 683.91357422 C-1052.12467391 678.57684369 -1052.12795382 673.24016344 -1052.13394356 667.90343475 C-1052.13755374 663.80629089 -1052.13640847 659.70915899 -1052.13381577 655.61201477 C-1052.13314776 653.64398696 -1052.13397051 651.67595807 -1052.13629532 649.70793152 C-1052.13882929 646.95955521 -1052.13497065 644.21126082 -1052.12939453 641.46289062 C-1052.13141876 640.64617386 -1052.13344299 639.82945709 -1052.13552856 638.98799133 C-1052.12326273 635.73147701 -1052.03725496 633.11176488 -1051 630 C-1050.79578162 627.16363361 -1050.62800053 624.3397154 -1050.5 621.5 C-1050.13513514 613.40540541 -1050.13513514 613.40540541 -1049 610 C-1048.53830014 606.36050655 -1048.13558796 602.72028917 -1047.75 599.07226562 C-1047.10188261 593.20376523 -1047.10188261 593.20376523 -1046 591 C-1045.81873784 589.50386786 -1045.67899619 588.00256314 -1045.5625 586.5 C-1044.98673651 580.27455729 -1044.08911096 574.1273668 -1042.02734375 568.20703125 C-1040.62311821 563.8234983 -1039.90947651 559.360611 -1039.14453125 554.83398438 C-1038.46329272 550.9772953 -1037.49385341 547.60585305 -1036 544 C-1035.36553924 541.57020924 -1034.7647306 539.13151891 -1034.1875 536.6875 C-1032.1590616 528.33187561 -1029.66537869 520.171543 -1027 512 C-1026.78698242 511.3404834 -1026.57396484 510.6809668 -1026.35449219 510.00146484 C-1024.13412187 503.13651111 -1021.84884212 496.31878696 -1019.08984375 489.6484375 C-1018.24701298 487.6002681 -1017.43209576 485.54059937 -1016.62890625 483.4765625 C-1013.86503865 476.37610924 -1010.86611323 469.55077685 -1007.37109375 462.76953125 C-1006.08535774 460.17241778 -1004.98348439 457.57607617 -1003.9375 454.875 C-999.64329787 443.83524958 -993.60075832 433.4940526 -988.06567383 423.03955078 C-987.01973082 421.03776203 -986.00367307 419.02326392 -985 417 C-984.34 417 -983.68 417 -983 417 C-982.89300781 416.26523437 -982.78601563 415.53046875 -982.67578125 414.7734375 C-981.95342794 411.8088661 -980.94857812 410.09496779 -979.1875 407.625 C-976.96521711 404.48295478 -974.99012798 401.2798146 -973.09985352 397.92675781 C-971.10115342 394.42537243 -968.99095611 390.99386502 -966.875 387.5625 C-966.43285156 386.83095703 -965.99070312 386.09941406 -965.53515625 385.34570312 C-964.41193353 383.52852558 -963.21215506 381.75910307 -962 380 C-961.34 380 -960.68 380 -960 380 C-960 379.01 -960 378.02 -960 377 C-959.34 377 -958.68 377 -958 377 C-957.5359375 375.824375 -957.5359375 375.824375 -957.0625 374.625 C-956 372 -956 372 -955 370 C-954.34 370 -953.68 370 -953 370 C-952.5978125 369.1646875 -952.5978125 369.1646875 -952.1875 368.3125 C-949.34224908 362.77174822 -945.79889134 358.1171698 -941.875 353.3125 C-940.78742535 351.97659156 -939.70141095 350.63941094 -938.6171875 349.30078125 C-938.13878418 348.71466064 -937.66038086 348.12854004 -937.16748047 347.5246582 C-935.91655657 345.99036999 -935.91655657 345.99036999 -935 344 C-934.34 344 -933.68 344 -933 344 C-932.731875 343.42765625 -932.46375 342.8553125 -932.1875 342.265625 C-930.95867364 339.92115366 -929.57477824 337.87595062 -928 335.75 C-927.2265625 334.69039063 -927.2265625 334.69039063 -926.4375 333.609375 C-925.963125 333.07828125 -925.48875 332.5471875 -925 332 C-924.34 332 -923.68 332 -923 332 C-922.67 331.01 -922.34 330.02 -922 329 C-921.34 329 -920.68 329 -920 329 C-919.75636719 328.43796875 -919.51273438 327.8759375 -919.26171875 327.296875 C-917.75819064 324.55980215 -915.93300252 322.54204059 -913.8125 320.25 C-910.24732642 316.3743113 -906.78753119 312.43851248 -903.41015625 308.3984375 C-902 307 -902 307 -900 307 C-900 306.34 -900 305.68 -900 305 C-898.625 303.375 -898.625 303.375 -897 302 C-896.34 302 -895.68 302 -895 302 C-895 301.34 -895 300.68 -895 300 C-893.671875 298.66015625 -893.671875 298.66015625 -891.75 297.0625 C-889.06723221 294.79320538 -886.43344885 292.49329006 -883.8671875 290.09375 C-883.33125977 289.59351318 -882.79533203 289.09327637 -882.24316406 288.57788086 C-881.17155617 287.5743398 -880.1031417 286.5673769 -879.03808594 285.55688477 C-875.22069869 282 -875.22069869 282 -873 282 C-872.67 281.01 -872.34 280.02 -872 279 C-870.28561252 277.43579853 -868.5043823 275.94387998 -866.6875 274.5 C-865.72199219 273.7265625 -864.75648438 272.953125 -863.76171875 272.15625 C-862.85035156 271.4446875 -861.93898438 270.733125 -861 270 C-860.26394531 269.4121875 -859.52789063 268.824375 -858.76953125 268.21875 C-857 267 -857 267 -855 267 C-855 266.34 -855 265.68 -855 265 C-853.3203125 263.4921875 -853.3203125 263.4921875 -851.125 261.875 C-850.40570312 261.33617187 -849.68640625 260.79734375 -848.9453125 260.2421875 C-847 259 -847 259 -845 259 C-845 258.34 -845 257.68 -845 257 C-843.64575195 255.81420898 -843.64575195 255.81420898 -841.73828125 254.49609375 C-840.68858154 253.76326172 -840.68858154 253.76326172 -839.61767578 253.015625 C-838.85696777 252.49484375 -838.09625977 251.9740625 -837.3125 251.4375 C-836.53374512 250.89738281 -835.75499023 250.35726562 -834.95263672 249.80078125 C-833.37048425 248.70422064 -831.78650343 247.6102932 -830.20068359 246.51904297 C-828.33958062 245.23439878 -826.48875487 243.93758146 -824.64453125 242.62890625 C-794.70064796 221.51711273 -760.48155796 201.00381362 -725.734375 189.02734375 C-722.60502384 187.85160181 -719.63883793 186.44563279 -716.625 185 C-711.35008993 182.51768938 -706.1284292 180.6878082 -700.53515625 179.0703125 C-695.6544088 177.59260554 -690.8743985 175.85932172 -686.08691406 174.10546875 C-681.43747146 172.42607142 -676.80438968 171.16485202 -672 170 C-670.57583611 169.54359848 -669.15721431 169.06875393 -667.75 168.5625 C-658.28982147 165.35538667 -648.57726259 163.47480147 -638.76171875 161.74609375 C-635.09662597 161.01916465 -631.58273059 160.05374429 -628 159 C-622.16653441 157.6162477 -616.39256909 156.80090804 -610.42578125 156.28125 C-608.09070627 156.01051667 -605.90623807 155.55900609 -603.625 155 C-598.98056281 153.88035889 -594.36142553 153.54742875 -589.6015625 153.24609375 C-586.88847548 153.08809232 -586.88847548 153.08809232 -584 152 C-582.50575704 151.86501367 -581.00703943 151.77621272 -579.5078125 151.71875 C-578.63769531 151.68136719 -577.76757812 151.64398438 -576.87109375 151.60546875 C-575.96488281 151.57066406 -575.05867188 151.53585938 -574.125 151.5 C-572.33579412 151.43069073 -570.54671981 151.35787971 -568.7578125 151.28125 C-567.9652002 151.25095703 -567.17258789 151.22066406 -566.35595703 151.18945312 C-563.84302894 150.98737725 -561.47015728 150.49591192 -559 150 C-557.40884788 149.86072451 -555.81432725 149.75636717 -554.21875 149.68359375 C-553.30552979 149.64153809 -552.39230957 149.59948242 -551.45141602 149.55615234 C-550.47744873 149.51699707 -549.50348145 149.4778418 -548.5 149.4375 C-547.47898193 149.3957666 -546.45796387 149.3540332 -545.40600586 149.31103516 C-530.91678176 148.76249774 -516.48732689 148.87099926 -502 149.4375 C-500.97849854 149.47665527 -499.95699707 149.51581055 -498.90454102 149.55615234 C-497.94604248 149.59820801 -496.98754395 149.64026367 -496 149.68359375 C-494.7315625 149.73858032 -494.7315625 149.73858032 -493.4375 149.79467773 C-490.89816778 150.00857781 -488.49618757 150.49679635 -486 151 C-484.55698991 151.11566857 -483.11089385 151.19775754 -481.6640625 151.24609375 C-480.44940308 151.29334595 -480.44940308 151.29334595 -479.21020508 151.34155273 C-478.3570874 151.37321533 -477.50396973 151.40487793 -476.625 151.4375 C-465.69437707 151.91629334 -454.95796585 152.93879994 -444.29296875 155.5 C-439.24665093 156.60038958 -434.10632971 157.23884522 -429 158 C-421.85501171 159.07900204 -414.90354817 160.44907439 -407.91015625 162.2734375 C-404.25242297 163.18664339 -400.57154669 163.89608242 -396.86328125 164.5703125 C-395 165 -395 165 -394 166 C-392.67450913 166.32545535 -391.33889065 166.61001123 -390 166.875 C-386.80882839 167.55343806 -383.76711503 168.36216824 -380.6875 169.4375 C-377.18016889 170.65345626 -373.6688584 171.6191631 -370.0625 172.5 C-362.10470501 174.44658357 -354.46225304 176.71211138 -346.88671875 179.83984375 C-344.02877645 180.98843491 -341.14708611 182.0576395 -338.25488281 183.11645508 C-331.32003217 185.66092614 -324.61212237 188.46893699 -317.93359375 191.640625 C-315.37590253 192.82581347 -312.82153249 193.8757331 -310.1875 194.875 C-303.52194133 197.47380673 -297.20675046 200.81979084 -290.83886719 204.06445312 C-288.4404659 205.28467003 -286.0333761 206.48711065 -283.625 207.6875 C-276.3125 211.34375 -276.3125 211.34375 -269 215 C-269 215.66 -269 216.32 -269 217 C-268.11622681 217.19227173 -268.11622681 217.19227173 -267.21459961 217.38842773 C-263.71041415 218.35612529 -260.69553217 220.26331458 -257.5625 222.0625 C-256.86253906 222.46154541 -256.16257812 222.86059082 -255.44140625 223.27172852 C-253.28898979 224.5056149 -251.14315957 225.75011131 -249 227 C-248.33468262 227.38768555 -247.66936523 227.77537109 -246.98388672 228.17480469 C-245.14917856 229.25152664 -243.32288105 230.34089705 -241.5 231.4375 C-240.4378125 232.07558594 -239.375625 232.71367187 -238.28125 233.37109375 C-237.5284375 233.90863281 -236.775625 234.44617188 -236 235 C-236 235.66 -236 236.32 -236 237 C-235.41460449 237.11609619 -234.82920898 237.23219238 -234.22607422 237.35180664 C-231.85520179 238.04216267 -230.37887458 238.93293556 -228.3828125 240.37109375 C-227.35788696 241.10223389 -227.35788696 241.10223389 -226.31225586 241.84814453 C-225.59046143 242.37263184 -224.86866699 242.89711914 -224.125 243.4375 C-222.60808808 244.52736485 -221.09116073 245.61720824 -219.57421875 246.70703125 C-218.81286621 247.25697754 -218.05151367 247.80692383 -217.26708984 248.37353516 C-215.11408136 249.91815528 -212.94627354 251.43829142 -210.76953125 252.94921875 C-210.12161621 253.40176025 -209.47370117 253.85430176 -208.80615234 254.32055664 C-207.57913189 255.17709835 -206.34906831 256.02930036 -205.11572266 256.87670898 C-203.70753735 257.86818639 -202.34773378 258.92779341 -201 260 C-201 260.66 -201 261.32 -201 262 C-200.2575 262.268125 -199.515 262.53625 -198.75 262.8125 C-196.10938051 263.95276751 -194.14447156 265.09380306 -192 267 C-192 267.66 -192 268.32 -192 269 C-191.071875 269.4640625 -191.071875 269.4640625 -190.125 269.9375 C-188.75 270.625 -187.375 271.3125 -186 272 C-186 272.66 -186 273.32 -186 274 C-185.45601562 274.22558594 -184.91203125 274.45117188 -184.3515625 274.68359375 C-181.26359881 276.41223787 -178.95545026 278.64550144 -176.375 281.0625 C-172.95790247 284.41533647 -172.95790247 284.41533647 -169 287 C-169 287.66 -169 288.32 -169 289 C-168.01 289.33 -167.02 289.66 -166 290 C-166 290.66 -166 291.32 -166 292 C-165.42765625 292.24492187 -164.8553125 292.48984375 -164.265625 292.7421875 C-161.61975598 294.21110099 -159.85146861 295.95348244 -157.75 298.125 C-157.04359375 298.84945313 -156.3371875 299.57390625 -155.609375 300.3203125 C-155.07828125 300.87460937 -154.5471875 301.42890625 -154 302 C-150.48755623 300.75462407 -148.03727004 299.40995459 -145.3125 296.875 C-142.21052632 294 -142.21052632 294 -140 294 C-140 293.34 -140 292.68 -140 292 C-139.34 292 -138.68 292 -138 292 C-138 291.34 -138 290.68 -138 290 C-136.30725716 288.43567213 -134.54430148 286.94671428 -132.75 285.5 C-131.77546875 284.7059375 -130.8009375 283.911875 -129.796875 283.09375 C-127.55105238 281.41251966 -125.5534197 280.11864101 -123 279 C-123 278.34 -123 277.68 -123 277 C-117.52380952 272 -117.52380952 272 -115 272 C-115 271.34 -115 270.68 -115 270 C-113.30725716 268.43567213 -111.54430148 266.94671428 -109.75 265.5 C-108.77546875 264.7059375 -107.8009375 263.911875 -106.796875 263.09375 C-104.55105238 261.41251966 -102.5534197 260.11864101 -100 259 C-100 258.34 -100 257.68 -100 257 C-98.36567245 255.52230782 -96.66523632 254.11730681 -94.9375 252.75 C-91.54079368 250.0405139 -88.18686352 247.32199855 -84.9375 244.4375 C-82 242 -82 242 -80 242 C-79.67 241.01 -79.34 240.02 -79 239 C-78.34 239 -77.68 239 -77 239 C-77 238.34 -77 237.68 -77 237 C-74.8828125 235.0546875 -74.8828125 235.0546875 -72.125 232.875 C-70.76761719 231.78832031 -70.76761719 231.78832031 -69.3828125 230.6796875 C-67 229 -67 229 -65 229 C-65 228.34 -65 227.68 -65 227 C-64.34 227 -63.68 227 -63 227 C-63 226.34 -63 225.68 -63 225 C-61.30725716 223.43567213 -59.54430148 221.94671428 -57.75 220.5 C-56.77546875 219.7059375 -55.8009375 218.911875 -54.796875 218.09375 C-52.55105238 216.41251966 -50.5534197 215.11864101 -48 214 C-48 213.34 -48 212.68 -48 212 C-42.52380952 207 -42.52380952 207 -40 207 C-40 206.34 -40 205.68 -40 205 C-38.30725716 203.43567213 -36.54430148 201.94671428 -34.75 200.5 C-33.77546875 199.7059375 -32.8009375 198.911875 -31.796875 198.09375 C-29.55105238 196.41251966 -27.5534197 195.11864101 -25 194 C-25 193.34 -25 192.68 -25 192 C-23.36567245 190.52230782 -21.66523632 189.11730681 -19.9375 187.75 C-16.54079368 185.0405139 -13.18686352 182.32199855 -9.9375 179.4375 C-7 177 -7 177 -5 177 C-4.67 176.01 -4.34 175.02 -4 174 C-3.34 174 -2.68 174 -2 174 C-2 173.34 -2 172.68 -2 172 C-1.34 172 -0.68 172 0 172 C0 115.24 0 58.48 0 0 Z M-599.76171875 309.52685547 C-601.89997148 309.97885523 -604.04128998 310.40402732 -606.1875 310.81640625 C-615.79979665 312.66716095 -625.15241354 314.9408097 -634.4140625 318.1171875 C-636.48712272 318.82490897 -638.56677402 319.5133114 -640.6484375 320.1953125 C-641.30295898 320.41010254 -641.95748047 320.62489258 -642.63183594 320.84619141 C-644.53805071 321.47147842 -646.44479424 322.09515283 -648.3515625 322.71875 C-651.993192 323.99760918 -655.46429183 325.45769231 -659 327 C-661 327.66666667 -663 328.33333333 -665 329 C-670.43959435 331.04558101 -675.66655787 333.31012608 -680.84912109 335.93359375 C-682.98300377 336.99157327 -685.13518418 337.99001893 -687.3046875 338.97265625 C-698.05787775 343.87016044 -708.07320455 349.46931327 -718.05053711 355.78857422 C-722.25060562 358.39856043 -726.54015389 360.85927387 -731 363 C-731 363.66 -731 364.32 -731 365 C-732.02287109 365.34417969 -732.02287109 365.34417969 -733.06640625 365.6953125 C-736.73134871 367.32526028 -739.72195654 369.50055133 -742.9375 371.875 C-744.13344575 372.7483125 -745.33005444 373.6207179 -746.52734375 374.4921875 C-747.10339355 374.91467773 -747.67944336 375.33716797 -748.27294922 375.77246094 C-749.96288144 376.97361717 -751.69022355 378.08611019 -753.44140625 379.1953125 C-754.70791016 380.08863281 -754.70791016 380.08863281 -756 381 C-756 381.66 -756 382.32 -756 383 C-758 384 -760 385 -762 386 C-762 386.66 -762 387.32 -762 388 C-762.57234375 388.268125 -763.1446875 388.53625 -763.734375 388.8125 C-766.07884634 390.04132636 -768.12404938 391.42522176 -770.25 393 C-770.95640625 393.515625 -771.6628125 394.03125 -772.390625 394.5625 C-772.92171875 395.036875 -773.4528125 395.51125 -774 396 C-774 396.66 -774 397.32 -774 398 C-774.53463867 398.21011719 -775.06927734 398.42023438 -775.62011719 398.63671875 C-778.9245415 400.52961015 -781.41594503 403.13065526 -784.078125 405.8125 C-784.64956238 406.38202393 -785.22099976 406.95154785 -785.80975342 407.53833008 C-787.01234789 408.7395668 -788.21243334 409.94331997 -789.41015625 411.14941406 C-791.25040717 413.00040955 -793.10112633 414.84045446 -794.953125 416.6796875 C-796.12043384 417.84831724 -797.28712251 419.01756684 -798.453125 420.1875 C-799.28738007 421.01568237 -799.28738007 421.01568237 -800.13848877 421.8605957 C-803.06914802 424.44788487 -803.06914802 424.44788487 -804 428 C-804.66 428 -805.32 428 -806 428 C-807.51984883 429.67535459 -808.96706453 431.41705622 -810.375 433.1875 C-811.14585937 434.15042969 -811.91671875 435.11335937 -812.7109375 436.10546875 C-813.46632813 437.06066406 -814.22171875 438.01585937 -815 439 C-816.13308594 440.35544922 -816.13308594 440.35544922 -817.2890625 441.73828125 C-819.20110021 443.79317767 -819.20110021 443.79317767 -819 446 C-819.66 446 -820.32 446 -821 446 C-822.60965059 448.02955944 -824.09552185 450.05775563 -825.5625 452.1875 C-826.00650146 452.82171875 -826.45050293 453.4559375 -826.90795898 454.109375 C-827.82965074 455.42809061 -828.74831679 456.74892575 -829.6640625 458.07177734 C-830.88281122 459.83085581 -832.11104979 461.58271567 -833.34375 463.33203125 C-840.77884166 473.94798079 -848.00009971 484.50707633 -853.609375 496.21875 C-854.92137781 498.84275563 -856.36890989 501.27327878 -857.9375 503.75 C-861.69870674 509.86809869 -864.34459238 516.44000497 -867.14746094 523.03222656 C-868.41033872 525.9471163 -869.76877605 528.81508723 -871.125 531.6875 C-875.54617164 541.22359095 -879.08867639 550.93772062 -882.09765625 561.00390625 C-882.87460135 563.58363306 -883.69720067 566.13643619 -884.5625 568.6875 C-885.04322549 570.12447945 -885.52239952 571.56197889 -886 573 C-886.24621094 573.74121094 -886.49242187 574.48242188 -886.74609375 575.24609375 C-888.74047506 581.53924515 -890.04268663 587.90635163 -891.25390625 594.38671875 C-892 598 -892 598 -892.98193359 601.29321289 C-893.96069091 604.85687531 -894.55904714 608.2605934 -895.03515625 611.921875 C-895.20466797 613.19417969 -895.37417969 614.46648437 -895.54882812 615.77734375 C-895.72044319 617.10151187 -895.89166318 618.42573125 -896.0625 619.75 C-896.40390625 622.3703009 -896.74990278 624.98989868 -897.09765625 627.609375 C-897.24726807 628.76405273 -897.39687988 629.91873047 -897.55102539 631.10839844 C-898 634 -898 634 -899 637 C-899.34196154 640.36431604 -899.42914395 643.74664681 -899.5625 647.125 C-899.6251001 648.69411133 -899.6251001 648.69411133 -899.68896484 650.29492188 C-900.36376144 669.29939741 -900.32533376 688.37200431 -899.625 707.375 C-899.59422363 708.29990234 -899.56344727 709.22480469 -899.53173828 710.17773438 C-899.28933201 715.65350093 -898.55698695 720.87251226 -897.50830078 726.25 C-896.84383745 729.84486788 -896.40436803 733.45176924 -895.96069336 737.0793457 C-894.77014187 746.77259943 -892.920403 755.67476468 -890 765 C-889.07252534 768.7329415 -888.30346589 772.49563917 -887.54296875 776.265625 C-886.64152896 780.5749469 -885.48430929 784.53274956 -883.84765625 788.63671875 C-882.74367129 791.71464918 -881.91937231 794.84469373 -881.0625 798 C-879.7638242 802.65153081 -878.31701081 806.72762875 -876 810.9453125 C-874.29826092 814.44185452 -873.25516426 818.16160313 -872.125 821.875 C-870.98290859 825.04747613 -869.5901232 827.93101702 -868.05273438 830.92480469 C-867.0337082 832.93355295 -866.07736338 834.95957112 -865.140625 837.0078125 C-860.88334364 846.29795251 -856.24969875 855.2229946 -851 864 C-850.27079346 865.22299805 -850.27079346 865.22299805 -849.52685547 866.47070312 C-846.44480294 871.63547886 -843.355501 876.79582112 -840.23583984 881.93798828 C-839.21714448 883.63769215 -838.23781362 885.36092422 -837.26953125 887.08984375 C-836.85058594 887.72019531 -836.43164062 888.35054687 -836 889 C-835.34 889 -834.68 889 -834 889 C-834 889.99 -834 890.98 -834 892 C-833.34 892 -832.68 892 -832 892 C-830.79371992 894.33214148 -829.8345262 896.49642139 -829 899 C-828.34 899 -827.68 899 -827 899 C-826.5978125 899.84304688 -826.5978125 899.84304688 -826.1875 900.703125 C-824.9196021 903.15550646 -823.51027658 905.43927683 -822 907.75 C-821.2265625 908.94882813 -821.2265625 908.94882813 -820.4375 910.171875 C-819.963125 910.77515625 -819.48875 911.3784375 -819 912 C-818.34 912 -817.68 912 -817 912 C-816.73058594 912.57621094 -816.46117187 913.15242187 -816.18359375 913.74609375 C-814.9793982 916.03923181 -813.62488595 917.99919642 -812.0625 920.0625 C-811.30646484 921.06990234 -811.30646484 921.06990234 -810.53515625 922.09765625 C-809.10353998 923.87169473 -807.71626759 925.49885042 -806 927 C-805.34 927 -804.68 927 -804 927 C-803.74347656 927.58523438 -803.48695313 928.17046875 -803.22265625 928.7734375 C-801.89437838 931.19234608 -800.43475199 932.73198872 -798.4375 934.625 C-795.09722222 937.80555556 -795.09722222 937.80555556 -794 940 C-793.34 940 -792.68 940 -792 940 C-791.731875 940.639375 -791.46375 941.27875 -791.1875 941.9375 C-790.11332248 944.33131686 -790.11332248 944.33131686 -787 945 C-787 945.66 -787 946.32 -787 947 C-785.31477271 948.70484466 -785.31477271 948.70484466 -783.1875 950.4375 C-779.14805038 953.84417609 -779.14805038 953.84417609 -777.36328125 955.72265625 C-776.06812114 957.22791081 -776.06812114 957.22791081 -774 957 C-774 957.66 -774 958.32 -774 959 C-772.30725716 960.56432787 -770.54430148 962.05328572 -768.75 963.5 C-767.77546875 964.2940625 -766.8009375 965.088125 -765.796875 965.90625 C-763.55105238 967.58748034 -761.5534197 968.88135899 -759 970 C-759 970.66 -759 971.32 -759 972 C-758.01 972 -757.02 972 -756 972 C-756 972.66 -756 973.32 -756 974 C-754.40541053 975.43252986 -754.40541053 975.43252986 -752.30859375 976.86328125 C-751.13780273 977.69956055 -751.13780273 977.69956055 -749.94335938 978.55273438 C-749.11642578 979.13345703 -748.28949219 979.71417969 -747.4375 980.3125 C-746.23770508 981.16618164 -746.23770508 981.16618164 -745.01367188 982.03710938 C-743.42868675 983.16406614 -741.84146949 984.28789065 -740.25195312 985.40844727 C-738.19929269 986.85915123 -736.15914086 988.32576083 -734.12109375 989.796875 C-731.44004467 991.68938024 -728.7333215 993.32558857 -725.86328125 994.91015625 C-723.76991362 996.13457883 -721.80503389 997.4927918 -719.8125 998.875 C-715.51304797 1001.77749203 -711.0425575 1004.03559477 -706.37890625 1006.29296875 C-702.46207134 1008.2717628 -698.67771377 1010.43758252 -694.875 1012.625 C-689.05515472 1015.94857976 -683.29643769 1018.68453582 -677 1021 C-674.99653079 1021.82495791 -672.99668581 1022.65875674 -671 1023.5 C-662.9175443 1026.87543169 -654.81534091 1030.1178997 -646.56640625 1033.06640625 C-644.46427047 1033.83111013 -642.38453541 1034.65713814 -640.3125 1035.5 C-635.47243196 1037.35061425 -630.40492018 1038.4538862 -625.37036133 1039.64257812 C-620.09934499 1040.90065501 -620.09934499 1040.90065501 -619 1042 C-616.46047727 1042.51796792 -613.92763206 1042.99386074 -611.375 1043.4375 C-607.2798885 1044.15018515 -603.30862989 1044.91116685 -599.30859375 1046.0625 C-596.35419017 1046.89963915 -593.73705997 1047.33959282 -590.6875 1047.5625 C-586.2018018 1047.8990991 -586.2018018 1047.8990991 -584 1049 C-582.67467608 1049.20526663 -581.342214 1049.36587124 -580.0078125 1049.5 C-579.22019531 1049.5825 -578.43257812 1049.665 -577.62109375 1049.75 C-576.38552734 1049.87375 -576.38552734 1049.87375 -575.125 1050 C-573.50233856 1050.16406056 -571.87992976 1050.33064355 -570.2578125 1050.5 C-569.5373877 1050.5721875 -568.81696289 1050.644375 -568.07470703 1050.71875 C-566 1051 -566 1051 -564.31236267 1051.50849915 C-561.15838335 1052.17888859 -558.1520094 1052.13560488 -554.92749023 1052.14526367 C-554.22281113 1052.14862228 -553.51813202 1052.1519809 -552.792099 1052.15544128 C-550.4642459 1052.16493188 -548.13646499 1052.16689398 -545.80859375 1052.16796875 C-544.18156404 1052.17118454 -542.55453461 1052.17454885 -540.92750549 1052.17805481 C-537.51375662 1052.1840427 -534.10003305 1052.18589525 -530.6862793 1052.18530273 C-526.33791899 1052.18520157 -521.98972363 1052.19880827 -517.64140224 1052.21607494 C-514.27738215 1052.22726692 -510.91340089 1052.22921968 -507.54936409 1052.22869301 C-505.94799294 1052.22986406 -504.3466205 1052.23423599 -502.74526787 1052.24202538 C-493.94617172 1052.2807925 -485.63456625 1051.88417659 -477 1050 C-474.98289989 1049.77587777 -472.96216851 1049.57764642 -470.9375 1049.4375 C-467.32907788 1049.22807072 -467.32907788 1049.22807072 -464 1048 C-462.60652455 1047.86798654 -461.20981548 1047.76941967 -459.8125 1047.6875 C-453.86439386 1047.15303249 -448.27686718 1045.57795583 -442.55078125 1043.98046875 C-437.6632631 1042.63089003 -432.73821059 1041.56205375 -427.7734375 1040.54296875 C-423.23261569 1039.58331053 -418.89846875 1038.37245679 -414.515625 1036.84765625 C-411.53160613 1035.84217163 -408.51889011 1034.95763602 -405.5 1034.0625 C-400.89569303 1032.65770565 -396.58200549 1031.03717198 -392.23046875 1028.9921875 C-389.75523252 1027.8911192 -387.24802193 1027.00894623 -384.6875 1026.125 C-379.52950636 1024.29520896 -374.76834479 1021.94495215 -369.91015625 1019.4375 C-367.26417283 1018.13049074 -364.63536294 1017.03675603 -361.875 1016 C-357.46672421 1014.30126952 -353.6357915 1012.06894822 -349.63671875 1009.5703125 C-346.80155855 1007.88181709 -343.90712609 1006.43776574 -340.9375 1005 C-336.46136554 1002.80189826 -332.35662296 1000.39244876 -328.26171875 997.5546875 C-325.79848705 995.8614816 -323.28320903 994.27395414 -320.75 992.6875 C-315.81653756 989.56832361 -311.01475033 986.28606496 -306.23925781 982.93237305 C-302.19110692 980.09555346 -302.19110692 980.09555346 -300 979 C-300 978.34 -300 977.68 -300 977 C-299.45859375 976.7525 -298.9171875 976.505 -298.359375 976.25 C-295.4717151 974.72011396 -292.90223982 972.90849003 -290.25 971 C-289.26515625 970.29875 -288.2803125 969.5975 -287.265625 968.875 C-286.14414063 967.946875 -286.14414063 967.946875 -285 967 C-285 966.34 -285 965.68 -285 965 C-284.18789062 964.64421875 -284.18789062 964.64421875 -283.359375 964.28125 C-280.36749863 962.65652243 -277.88840601 960.6498123 -275.25 958.5 C-274.26515625 957.7059375 -273.2803125 956.911875 -272.265625 956.09375 C-271.51796875 955.4028125 -270.7703125 954.711875 -270 954 C-270 953.34 -270 952.68 -270 952 C-269.34 952 -268.68 952 -268 952 C-266.33333333 950.66666667 -266.33333333 950.66666667 -265 949 C-265 948.34 -265 947.68 -265 947 C-264.34 947 -263.68 947 -263 947 C-261.33333333 945.66666667 -261.33333333 945.66666667 -260 944 C-260 943.34 -260 942.68 -260 942 C-259.34 942 -258.68 942 -258 942 C-256.33333333 940.66666667 -256.33333333 940.66666667 -255 939 C-255 938.34 -255 937.68 -255 937 C-254.34 937 -253.68 937 -253 937 C-251.33333333 935.66666667 -251.33333333 935.66666667 -250 934 C-250 933.34 -250 932.68 -250 932 C-249.34 932 -248.68 932 -248 932 C-245.95543941 929.82735345 -245.95543941 929.82735345 -243.875 927.125 C-243.15054688 926.22007812 -242.42609375 925.31515625 -241.6796875 924.3828125 C-239.80794766 922.21344189 -239.80794766 922.21344189 -240 920 C-239.01 919.67 -238.02 919.34 -237 919 C-237 918.34 -237 917.68 -237 917 C-236.34 917 -235.68 917 -235 917 C-233.36077131 915.06725114 -233.36077131 915.06725114 -231.625 912.5 C-228.68705489 908.34635347 -225.69272324 904.25834208 -222.60595703 900.21411133 C-216.64092232 892.38181883 -211.18707042 884.36342254 -206 876 C-205.31164062 874.92105469 -204.62328125 873.84210937 -203.9140625 872.73046875 C-199.44106222 865.64393383 -195.559767 858.40154462 -191.91064453 850.86083984 C-190.95797749 848.91412988 -189.98059552 846.98157462 -188.99609375 845.05078125 C-181.15188926 829.6455162 -174.74352234 813.76811496 -168.91015625 797.49609375 C-168.08365973 795.22943592 -167.20323516 792.99189864 -166.3125 790.75 C-165.03648413 787.10424037 -164.49467868 783.81609271 -164 780 C-163.11770889 777.11784905 -162.11620622 774.31133584 -161.0625 771.48828125 C-159.63570193 766.80397728 -158.80366615 762.06496162 -157.9375 757.25 C-157.59516424 755.35888127 -157.25024013 753.46822869 -156.90234375 751.578125 C-156.67792603 750.33144043 -156.67792603 750.33144043 -156.44897461 749.05957031 C-156 747 -156 747 -155 745 C-154.73383763 743.36645799 -154.51319528 741.72537418 -154.31640625 740.08203125 C-154.19330078 739.07333984 -154.07019531 738.06464844 -153.94335938 737.02539062 C-153.81767578 735.96513672 -153.69199219 734.90488281 -153.5625 733.8125 C-153.31451134 731.75642475 -153.06580264 729.70043622 -152.81640625 727.64453125 C-152.68854736 726.5555957 -152.56068848 725.46666016 -152.42895508 724.34472656 C-152.15058855 722.1741964 -151.83232883 720.00827229 -151.4675293 717.85058594 C-149.51612789 705.77023255 -149.66327926 693.67019646 -149.68432617 681.46142578 C-149.68746443 677.66799566 -149.66403957 673.87536426 -149.63867188 670.08203125 C-149.58585218 649.44061666 -151.38879046 629.28913863 -155.57763672 609.06640625 C-156.06054033 606.7038073 -156.51729464 604.33680844 -156.97265625 601.96875 C-159.10971677 590.92761147 -161.51792316 580.15731407 -165.1875 569.51171875 C-166.20481339 566.36685092 -167.06292677 563.18740947 -167.9375 560 C-169.29723292 555.1763087 -170.85694009 550.71381191 -173.0078125 546.1953125 C-174.12002486 543.73443319 -174.99496911 541.24031688 -175.875 538.6875 C-177.70452813 533.53024748 -180.05652448 528.77006524 -182.55859375 523.91015625 C-184.24871556 520.49785069 -185.62210829 517.0196468 -186.98828125 513.46875 C-188.74136693 509.19095018 -190.87111848 505.10071441 -193 501 C-193.66 501 -194.32 501 -195 501 C-195.11601563 500.26136719 -195.23203125 499.52273438 -195.3515625 498.76171875 C-196.00855881 495.96354771 -196.85169457 494.22953664 -198.375 491.8125 C-200.54067491 488.34213801 -202.68390199 484.86431206 -204.7734375 481.34765625 C-205.7654988 479.69002863 -206.75768718 478.03247706 -207.75 476.375 C-208.23388184 475.55620361 -208.71776367 474.73740723 -209.21630859 473.89379883 C-209.90587646 472.75140747 -209.90587646 472.75140747 -210.609375 471.5859375 C-211.02155273 470.8954834 -211.43373047 470.2050293 -211.85839844 469.49365234 C-212.23512695 469.00074707 -212.61185547 468.5078418 -213 468 C-213.66 468 -214.32 468 -215 468 C-215.66666667 465.33333333 -216.33333333 462.66666667 -217 460 C-216.4946875 459.59007812 -215.989375 459.18015625 -215.46875 458.7578125 C-214.49421875 457.94957031 -214.49421875 457.94957031 -213.5 457.125 C-212.52546875 456.32449219 -212.52546875 456.32449219 -211.53125 455.5078125 C-211.0259375 455.01023437 -210.520625 454.51265625 -210 454 C-210 453.34 -210 452.68 -210 452 C-209.4225 451.731875 -208.845 451.46375 -208.25 451.1875 C-205.94449957 449.97070811 -203.97943808 448.69666121 -202 447 C-202 446.34 -202 445.68 -202 445 C-201.401875 444.71125 -200.80375 444.4225 -200.1875 444.125 C-197.80672208 442.95257974 -197.80672208 442.95257974 -195 441 C-195 440.34 -195 439.68 -195 439 C-194.236875 438.731875 -193.47375 438.46375 -192.6875 438.1875 C-190.11011382 437.04865495 -188.73045136 436.18583329 -187 434 C-187 433.34 -187 432.68 -187 432 C-186.44828125 431.7525 -185.8965625 431.505 -185.328125 431.25 C-182.54863293 429.75765526 -180.2185293 427.96327477 -177.75 426 C-176.85796875 425.29875 -175.9659375 424.5975 -175.046875 423.875 C-174.37140625 423.25625 -173.6959375 422.6375 -173 422 C-173 421.34 -173 420.68 -173 420 C-172.18789062 419.64421875 -172.18789062 419.64421875 -171.359375 419.28125 C-168.36749863 417.65652243 -165.88840601 415.6498123 -163.25 413.5 C-161.77273438 412.30890625 -161.77273438 412.30890625 -160.265625 411.09375 C-159.51796875 410.4028125 -158.7703125 409.711875 -158 409 C-158 408.34 -158 407.68 -158 407 C-157.4225 406.731875 -156.845 406.46375 -156.25 406.1875 C-153.94449957 404.97070811 -151.97943808 403.69666121 -150 402 C-150 401.34 -150 400.68 -150 400 C-149.18789062 399.64421875 -149.18789062 399.64421875 -148.359375 399.28125 C-145.36749863 397.65652243 -142.88840601 395.6498123 -140.25 393.5 C-138.77273438 392.30890625 -138.77273438 392.30890625 -137.265625 391.09375 C-136.51796875 390.4028125 -135.7703125 389.711875 -135 389 C-135 388.34 -135 387.68 -135 387 C-134.4225 386.731875 -133.845 386.46375 -133.25 386.1875 C-130.94449957 384.97070811 -128.97943808 383.69666121 -127 382 C-127 381.34 -127 380.68 -127 380 C-126.1028125 379.566875 -126.1028125 379.566875 -125.1875 379.125 C-122.80672208 377.95257974 -122.80672208 377.95257974 -120 376 C-120 375.34 -120 374.68 -120 374 C-119.4225 373.731875 -118.845 373.46375 -118.25 373.1875 C-115.94449957 371.97070811 -113.97943808 370.69666121 -112 369 C-112 368.34 -112 367.68 -112 367 C-111.401875 366.7525 -110.80375 366.505 -110.1875 366.25 C-107.70517913 364.83153093 -106.63671965 363.30735262 -105 361 C-106.28367442 359.16106176 -107.57716761 357.32897375 -108.875 355.5 C-109.59429688 354.4790625 -110.31359375 353.458125 -111.0546875 352.40625 C-111.69664062 351.6121875 -112.33859375 350.818125 -113 350 C-113.66 350 -114.32 350 -115 350 C-115.268125 349.42765625 -115.53625 348.8553125 -115.8125 348.265625 C-117.04132636 345.92115366 -118.42522176 343.87595062 -120 341.75 C-120.515625 341.04359375 -121.03125 340.3371875 -121.5625 339.609375 C-122.036875 339.07828125 -122.51125 338.5471875 -123 338 C-123.66 338 -124.32 338 -125 338 C-125.23332031 337.44828125 -125.46664062 336.8965625 -125.70703125 336.328125 C-127.34019284 333.38744733 -129.39339207 331.20922749 -131.6875 328.75 C-134.74256461 325.44437614 -137.78962257 322.14085737 -140.75 318.75 C-141.29785156 318.12480469 -141.84570312 317.49960937 -142.41015625 316.85546875 C-143.50032702 315.58315642 -144.56979897 314.29290007 -145.62109375 312.98828125 C-146.13800781 312.35277344 -146.65492188 311.71726562 -147.1875 311.0625 C-147.63480469 310.49660156 -148.08210937 309.93070312 -148.54296875 309.34765625 C-150.34813746 307.67799618 -151.56076306 307.23867289 -154 307 C-156.79311693 308.71767582 -156.79311693 308.71767582 -159 311 C-159 311.66 -159 312.32 -159 313 C-159.55171875 313.23203125 -160.1034375 313.4640625 -160.671875 313.703125 C-163.62510231 315.34821135 -165.79112221 317.43162951 -168.25 319.75 C-172.20889412 323.42725467 -176.18979871 326.77813779 -180.63671875 329.84375 C-181.08660156 330.2253125 -181.53648437 330.606875 -182 331 C-182 331.66 -182 332.32 -182 333 C-182.66 333 -183.32 333 -184 333 C-184 333.66 -184 334.32 -184 335 C-184.57621094 335.26941406 -185.15242187 335.53882813 -185.74609375 335.81640625 C-188.03923181 337.0206018 -189.99919642 338.37511405 -192.0625 339.9375 C-192.73410156 340.44152344 -193.40570312 340.94554687 -194.09765625 341.46484375 C-195.87169473 342.89646002 -197.49885042 344.28373241 -199 346 C-199 346.66 -199 347.32 -199 348 C-199.57234375 348.268125 -200.1446875 348.53625 -200.734375 348.8125 C-203.07884634 350.04132636 -205.12404938 351.42522176 -207.25 353 C-207.95640625 353.515625 -208.6628125 354.03125 -209.390625 354.5625 C-209.92171875 355.036875 -210.4528125 355.51125 -211 356 C-211 356.66 -211 357.32 -211 358 C-211.86625 358.4021875 -211.86625 358.4021875 -212.75 358.8125 C-215.05550043 360.02929189 -217.02056192 361.30333879 -219 363 C-219 363.66 -219 364.32 -219 365 C-219.54140625 365.2371875 -220.0828125 365.474375 -220.640625 365.71875 C-223.63250137 367.34347757 -226.11159399 369.3501877 -228.75 371.5 C-230.22726562 372.69109375 -230.22726562 372.69109375 -231.734375 373.90625 C-232.48203125 374.5971875 -233.2296875 375.288125 -234 376 C-234 376.66 -234 377.32 -234 378 C-234.55558594 378.23589844 -235.11117187 378.47179687 -235.68359375 378.71484375 C-238.56375591 380.3127752 -240.66369076 382.305005 -243.0625 384.5625 C-248.52457512 389.61510229 -254.19080827 394.34902719 -260 399 C-260.82757812 399.76570313 -261.65515625 400.53140625 -262.5078125 401.3203125 C-265 403 -265 403 -267.48828125 403.03515625 C-270.71623399 401.70481803 -272.68210198 399.8595111 -275.1875 397.4375 C-278.11618701 394.13530446 -278.11618701 394.13530446 -282 393 C-282 392.34 -282 391.68 -282 391 C-284.63684747 388.60179695 -284.63684747 388.60179695 -288 388 C-288 387.34 -288 386.68 -288 386 C-290.74821467 383.38839249 -293.95164488 381.24476646 -297 379 C-297.99773437 378.26450928 -297.99773437 378.26450928 -299.015625 377.51416016 C-307.06860136 371.59400887 -315.12184126 365.72801284 -323.6328125 360.4765625 C-325.9530948 359.0292577 -328.19114751 357.49635671 -330.4375 355.9375 C-334.63530379 353.12415708 -339.01674915 350.90734077 -343.55859375 348.703125 C-347.60751026 346.69934793 -351.58137068 344.57176794 -355.5625 342.4375 C-364.24695614 337.80834478 -373.04761592 333.68609567 -382.21484375 330.09765625 C-384.31814783 329.26872435 -386.41314549 328.41867259 -388.50390625 327.55859375 C-400.04335929 322.81904175 -411.79835125 319.29756547 -423.80859375 315.9296875 C-425.81259365 315.34590295 -427.80364552 314.71322663 -429.76953125 314.01171875 C-434.19879198 312.62456213 -438.69384315 311.80080638 -443.25 310.9375 C-445.04737873 310.59508153 -446.84428148 310.2501521 -448.640625 309.90234375 C-449.42985352 309.75273193 -450.21908203 309.60312012 -451.03222656 309.44897461 C-453 309 -453 309 -455 308 C-456.82963411 307.79670732 -458.66408368 307.63527804 -460.5 307.5 C-465.77777778 307.11111111 -465.77777778 307.11111111 -468 306 C-469.3983908 305.79383847 -470.8037638 305.6336472 -472.2109375 305.5 C-473.04367187 305.4175 -473.87640625 305.335 -474.734375 305.25 C-475.60578125 305.1675 -476.4771875 305.085 -477.375 305 C-479.09140699 304.83604471 -480.80756611 304.66946878 -482.5234375 304.5 C-483.6669165 304.39171875 -483.6669165 304.39171875 -484.83349609 304.28125 C-487 304 -487 304 -488.74642944 303.49249268 C-491.60993954 302.86670453 -494.29159633 302.85691983 -497.22363281 302.83886719 C-498.48725647 302.82925964 -499.75088013 302.8196521 -501.05279541 302.80975342 C-502.43623674 302.80489591 -503.81968021 302.80061945 -505.203125 302.796875 C-505.90868279 302.79404762 -506.61424057 302.79122025 -507.34117889 302.78830719 C-511.09708528 302.77330077 -514.85295333 302.76408861 -518.60888672 302.75976562 C-521.66727969 302.75543101 -524.72538256 302.74174045 -527.78369141 302.71875 C-552.31649378 302.5379761 -575.72202851 304.36034221 -599.76171875 309.52685547 Z " fill="#000000" transform="translate(1052,0)"/>
<path d="M0 0 C1.64645508 -0.00580078 1.64645508 -0.00580078 3.32617188 -0.01171875 C8.81511245 -0.00510158 14.00615594 0.27391618 19.4375 1.125 C21.55544953 1.24360309 23.67141403 1.30358486 25.79174805 1.36474609 C36.16909743 1.68832568 45.9269074 3.38391603 56.04492188 5.61523438 C61.05455957 6.68259392 66.10823508 7.52730089 71.15234375 8.4140625 C74.12965686 9.05837996 76.63558064 9.96433438 79.4375 11.125 C81.32636767 11.61124316 83.2229279 12.06828804 85.125 12.5 C89.80444488 13.64146653 94.10662729 15.0836989 98.53515625 16.95703125 C103.02541021 18.76401097 107.6108512 20.30068319 112.19799805 21.84301758 C117.1768605 23.5561183 121.77227461 25.6943591 126.4375 28.125 C127.7695943 28.79413899 129.10293174 29.46080892 130.4375 30.125 C140.4375 35.125 140.4375 35.125 150.4375 40.125 C150.4375 40.785 150.4375 41.445 150.4375 42.125 C151.02668213 42.24939453 151.61586426 42.37378906 152.22290039 42.50195312 C155.80345992 43.50929387 158.76619893 45.63914989 161.875 47.625 C162.57496094 48.0684375 163.27492188 48.511875 163.99609375 48.96875 C178.59922864 58.28089399 178.59922864 58.28089399 183.4375 62.125 C183.4375 62.785 183.4375 63.445 183.4375 64.125 C184.00984375 64.393125 184.5821875 64.66125 185.171875 64.9375 C187.51634634 66.16632636 189.56154938 67.55022176 191.6875 69.125 C192.74710938 69.8984375 192.74710938 69.8984375 193.828125 70.6875 C194.35921875 71.161875 194.8903125 71.63625 195.4375 72.125 C195.4375 72.785 195.4375 73.445 195.4375 74.125 C196.076875 74.3725 196.71625 74.62 197.375 74.875 C199.4375 76.125 199.4375 76.125 200.26953125 77.97265625 C200.4375 80.125 200.4375 80.125 199.171875 81.94921875 C183.87520314 96.31243229 183.87520314 96.31243229 178.4375 98.125 C178.1075 99.115 177.7775 100.105 177.4375 101.125 C176.7775 101.125 176.1175 101.125 175.4375 101.125 C175.4375 101.785 175.4375 102.445 175.4375 103.125 C173.3203125 105.0703125 173.3203125 105.0703125 170.5625 107.25 C169.20511719 108.33667969 169.20511719 108.33667969 167.8203125 109.4453125 C165.4375 111.125 165.4375 111.125 163.4375 111.125 C163.4375 111.785 163.4375 112.445 163.4375 113.125 C157.96130952 118.125 157.96130952 118.125 155.4375 118.125 C155.4375 118.785 155.4375 119.445 155.4375 120.125 C153.20703125 122.32421875 153.20703125 122.32421875 150.25 124.8125 C149.28707031 125.64136719 148.32414062 126.47023438 147.33203125 127.32421875 C144.4375 129.125 144.4375 129.125 141.57421875 128.89453125 C140.86910156 128.64058594 140.16398437 128.38664063 139.4375 128.125 C139.4375 127.465 139.4375 126.805 139.4375 126.125 C138.91285156 125.89296875 138.38820313 125.6609375 137.84765625 125.421875 C134.64152556 123.69669609 131.79680921 121.5324171 128.875 119.375 C122.96873044 115.08338298 116.9338802 111.46857744 110.4375 108.125 C108.8506326 107.25642571 107.26710963 106.38170453 105.6875 105.5 C104.59308594 104.89478516 104.59308594 104.89478516 103.4765625 104.27734375 C101.64929918 103.24469494 99.85342754 102.15695572 98.0625 101.0625 C94.31169211 98.9055689 90.33315645 97.54637337 86.2578125 96.125 C83.63621036 95.19545686 81.07171706 94.18345589 78.5 93.125 C69.96972262 89.6858088 61.4259722 87.04057604 52.4375 85.125 C52.1075 84.795 51.7775 84.465 51.4375 84.125 C49.96353261 83.91731771 48.4825874 83.75783983 47 83.625 C42.65667808 83.23458904 42.65667808 83.23458904 40.4375 82.125 C27.6468717 79.65260154 15.09636236 78.64014442 2.08300781 78.73388672 C-0.56237285 78.74999923 -3.20622673 78.73389955 -5.8515625 78.71484375 C-23.58458213 78.69323385 -40.49372189 81.40346952 -57.5625 86.125 C-58.77679688 86.45628906 -59.99109375 86.78757812 -61.2421875 87.12890625 C-64.69399896 88.09193899 -68.13015627 89.09488972 -71.5625 90.125 C-73.05330078 90.56779297 -73.05330078 90.56779297 -74.57421875 91.01953125 C-82.92772059 93.64045639 -90.71593443 97.29324996 -98.5625 101.125 C-99.68785156 101.66769531 -100.81320312 102.21039063 -101.97265625 102.76953125 C-108.22902315 105.82194889 -108.22902315 105.82194889 -114.125 109.5 C-116.5625 111.125 -116.5625 111.125 -119.5625 111.125 C-119.5625 111.785 -119.5625 112.445 -119.5625 113.125 C-121.65234375 114.60546875 -121.65234375 114.60546875 -124.5 116.3125 C-130.91039975 120.27259251 -136.70891803 124.75713411 -142.5 129.5625 C-144.5625 131.125 -144.5625 131.125 -146.5625 131.125 C-146.5625 131.785 -146.5625 132.445 -146.5625 133.125 C-152.03869048 138.125 -152.03869048 138.125 -154.5625 138.125 C-154.8925 139.115 -155.2225 140.105 -155.5625 141.125 C-156.2225 141.125 -156.8825 141.125 -157.5625 141.125 C-157.5625 141.785 -157.5625 142.445 -157.5625 143.125 C-158.2225 143.125 -158.8825 143.125 -159.5625 143.125 C-159.5625 143.785 -159.5625 144.445 -159.5625 145.125 C-160.2225 145.125 -160.8825 145.125 -161.5625 145.125 C-161.8925 146.115 -162.2225 147.105 -162.5625 148.125 C-163.2225 148.125 -163.8825 148.125 -164.5625 148.125 C-164.830625 148.7025 -165.09875 149.28 -165.375 149.875 C-166.59179189 152.18050043 -167.86583879 154.14556192 -169.5625 156.125 C-170.2225 156.125 -170.8825 156.125 -171.5625 156.125 C-171.7996875 156.66511719 -172.036875 157.20523438 -172.28125 157.76171875 C-173.90944183 160.76493843 -175.93625229 163.26286878 -178.0625 165.9375 C-186.47733026 176.71533561 -193.70901294 187.74631426 -199.5625 200.125 C-200.7484074 202.43831713 -201.93597227 204.75078515 -203.125 207.0625 C-205.96321385 212.72009 -208.34829602 218.43970447 -210.51953125 224.3828125 C-211.5625 227.125 -211.5625 227.125 -212.5703125 228.98046875 C-214.09643488 232.27905609 -214.80111549 235.7882792 -215.625 239.3125 C-217.43320938 246.99570938 -217.43320938 246.99570938 -218.5625 248.125 C-218.91930772 249.93714847 -219.22162304 251.7600952 -219.5 253.5859375 C-219.67273438 254.69710937 -219.84546875 255.80828125 -220.0234375 256.953125 C-220.29027344 258.70882812 -220.29027344 258.70882812 -220.5625 260.5 C-220.91435921 262.79983338 -221.26842553 265.09933047 -221.625 267.3984375 C-221.78097656 268.42372559 -221.93695313 269.44901367 -222.09765625 270.50537109 C-222.5625 273.125 -222.5625 273.125 -223.5625 276.125 C-223.66464795 277.76275217 -223.7109095 279.40428074 -223.72363281 281.04516602 C-223.73324036 282.04794083 -223.7428479 283.05071564 -223.75274658 284.08387756 C-223.75699646 285.17123703 -223.76124634 286.2585965 -223.765625 287.37890625 C-223.77132507 288.50836166 -223.77702515 289.63781708 -223.78289795 290.80149841 C-223.7923589 293.20318667 -223.79888626 295.60488798 -223.80273438 298.0065918 C-223.81232404 301.62117561 -223.8432878 305.23516192 -223.875 308.84960938 C-223.95475899 326.35538422 -222.14105428 342.21956883 -217.5625 359.125 C-217.253125 360.3625 -216.94375 361.6 -216.625 362.875 C-215.04735183 369.13962662 -213.3702018 375.12595307 -210.55859375 380.95703125 C-209.41478841 383.44648994 -208.52366299 385.97478368 -207.625 388.5625 C-205.69292694 393.99360302 -203.22645337 399.02256893 -200.5625 404.125 C-200.13453125 405.02089844 -199.7065625 405.91679688 -199.265625 406.83984375 C-196.58058929 412.01900667 -193.42501473 416.90435861 -190.32617188 421.84375 C-189.84341797 422.62234375 -189.36066406 423.4009375 -188.86328125 424.203125 C-188.42153564 424.90856445 -187.97979004 425.61400391 -187.5246582 426.34082031 C-186.5625 428.125 -186.5625 428.125 -186.5625 430.125 C-185.9025 430.125 -185.2425 430.125 -184.5625 430.125 C-181.5625 434.50961538 -181.5625 434.50961538 -181.5625 437.125 C-180.9025 437.125 -180.2425 437.125 -179.5625 437.125 C-178.1953125 438.953125 -178.1953125 438.953125 -176.6875 441.375 C-174.56026525 444.69619739 -172.41223615 447.38486909 -169.5625 450.125 C-169.5625 450.785 -169.5625 451.445 -169.5625 452.125 C-168.5725 452.455 -167.5825 452.785 -166.5625 453.125 C-166.5625 453.785 -166.5625 454.445 -166.5625 455.125 C-165.9025 455.125 -165.2425 455.125 -164.5625 455.125 C-164.5625 455.785 -164.5625 456.445 -164.5625 457.125 C-163.9025 457.125 -163.2425 457.125 -162.5625 457.125 C-160.9375 458.5 -160.9375 458.5 -159.5625 460.125 C-159.5625 460.785 -159.5625 461.445 -159.5625 462.125 C-158.9025 462.125 -158.2425 462.125 -157.5625 462.125 C-155.9375 463.5 -155.9375 463.5 -154.5625 465.125 C-154.5625 465.785 -154.5625 466.445 -154.5625 467.125 C-153.9025 467.125 -153.2425 467.125 -152.5625 467.125 C-152.5625 467.785 -152.5625 468.445 -152.5625 469.125 C-151.5725 469.455 -150.5825 469.785 -149.5625 470.125 C-149.5625 470.785 -149.5625 471.445 -149.5625 472.125 C-147.9125 472.785 -146.2625 473.445 -144.5625 474.125 C-144.5625 474.785 -144.5625 475.445 -144.5625 476.125 C-143.758125 476.49625 -143.758125 476.49625 -142.9375 476.875 C-139.9801018 478.43152537 -137.26525949 480.15935673 -134.5625 482.125 C-134.5625 482.785 -134.5625 483.445 -134.5625 484.125 C-133.88316406 484.35703125 -133.20382812 484.5890625 -132.50390625 484.828125 C-128.86519744 486.43244283 -125.7476145 488.61219453 -122.5 490.875 C-116.90067224 494.69909884 -111.27016514 497.97742828 -105.1328125 500.890625 C-102.98604974 501.92159313 -100.97247191 503.01955187 -98.9375 504.25 C-95.43397207 506.1964044 -91.92339878 507.66597136 -88.1875 509.09765625 C-86.17526132 509.88518418 -84.18386609 510.72614851 -82.203125 511.58984375 C-78.61034023 513.10482703 -75.01242612 514.39693942 -71.3125 515.625 C-70.11109375 516.0271875 -68.9096875 516.429375 -67.671875 516.84375 C-58.38532471 519.79035481 -49.20130665 521.82075821 -39.5625 523.25 C-37.35383055 523.58372053 -35.14547954 523.91955749 -32.9375 524.2578125 C-31.97585938 524.40105957 -31.01421875 524.54430664 -30.0234375 524.69189453 C-27.5625 525.125 -27.5625 525.125 -24.5625 526.125 C-23.03540208 526.22151124 -21.50449312 526.263115 -19.97436523 526.27026367 C-19.04587265 526.27664352 -18.11738007 526.28302338 -17.16075134 526.28959656 C-16.15766434 526.29070938 -15.15457733 526.2918222 -14.12109375 526.29296875 C-13.08364517 526.29629715 -12.04619659 526.29962555 -10.97731018 526.30305481 C-8.77743981 526.30812185 -6.57756175 526.3104632 -4.37768555 526.31030273 C-1.03746543 526.31247563 2.30241706 526.33059611 5.64257812 526.34960938 C7.78385304 526.35254618 9.92512952 526.35452905 12.06640625 526.35546875 C13.05532364 526.36265427 14.04424103 526.36983978 15.06312561 526.37724304 C20.61780653 526.35926444 25.74501836 525.86219481 31.16567993 524.63069153 C33.56560499 524.09648471 35.96311315 523.70557929 38.39453125 523.34375 C39.19697266 523.22386719 39.99941406 523.10398437 40.82617188 522.98046875 C42.46117971 522.74068517 44.09661048 522.50377018 45.73242188 522.26953125 C49.92806041 521.63763751 53.52404672 520.82417459 57.4375 519.125 C59.34746744 518.63950548 61.26480594 518.18235184 63.1875 517.75 C67.90922334 516.60727334 72.11511006 515.10419648 76.49609375 513.02734375 C79.07387694 511.82921917 81.73657732 511.00693394 84.4375 510.125 C96.95986864 505.71371105 108.45318372 498.90290054 119.69018555 491.91918945 C124.23004995 489.125 124.23004995 489.125 126.4375 489.125 C126.4375 488.465 126.4375 487.805 126.4375 487.125 C127.4275 487.125 128.4175 487.125 129.4375 487.125 C129.4375 486.465 129.4375 485.805 129.4375 485.125 C131.22074084 483.66571458 133.06670666 482.28271154 134.9375 480.9375 C139.49095382 477.62853111 143.79141946 474.17546734 147.9140625 470.33984375 C149.4375 469.125 149.4375 469.125 151.4375 469.125 C151.4375 468.465 151.4375 467.805 151.4375 467.125 C153.01171875 465.609375 153.01171875 465.609375 155.125 463.875 C157.79099133 461.62424272 160.14760091 459.42450455 162.3125 456.6875 C163.01375 455.841875 163.715 454.99625 164.4375 454.125 C165.0975 454.125 165.7575 454.125 166.4375 454.125 C166.705625 453.55265625 166.97375 452.9803125 167.25 452.390625 C168.47882636 450.04615366 169.86272176 448.00095062 171.4375 445.875 C172.2109375 444.81539062 172.2109375 444.81539062 173 443.734375 C173.474375 443.20328125 173.94875 442.6721875 174.4375 442.125 C175.0975 442.125 175.7575 442.125 176.4375 442.125 C176.66953125 441.60035156 176.9015625 441.07570313 177.140625 440.53515625 C178.86577639 437.32907671 181.02978751 434.48405386 183.1875 431.5625 C186.95981491 426.38082328 190.24153924 421.15186524 193.19921875 415.453125 C194.4375 413.125 194.4375 413.125 196.625 409.875 C198.68643865 406.74729997 200.00612779 403.58414952 201.4375 400.125 C202.09356399 398.78641782 202.76059695 397.45316583 203.4375 396.125 C206.85618797 389.32647278 209.27628911 382.61775947 211.46484375 375.328125 C212.26340218 372.6983342 213.10728468 370.09868963 214 367.5 C214.48385161 366.04321435 214.96298299 364.58485287 215.4375 363.125 C215.68371094 362.36832031 215.92992187 361.61164063 216.18359375 360.83203125 C218.71863991 352.3599858 219.85082139 343.65671008 221.04052734 334.9152832 C221.32465903 332.91814846 221.63532746 330.92471816 221.96337891 328.93432617 C223.28681401 320.62661845 223.75037902 312.50210548 223.69824219 304.11108398 C223.68748734 302.06008498 223.69823344 300.00995778 223.7109375 297.95898438 C223.71816079 290.48063439 223.22140391 283.28654337 221.92114258 275.91503906 C221.46030934 273.25658261 221.14133451 270.62155701 220.875 267.9375 C220.68104439 264.3268156 220.68104439 264.3268156 219.4375 262.125 C219.27645579 260.78851197 219.15131842 259.44756676 219.046875 258.10546875 C218.52053382 253.00016331 217.21966335 248.32264465 215.6875 243.4375 C215.286521 242.13256592 215.286521 242.13256592 214.87744141 240.80126953 C212.60824458 233.49539843 210.13510213 226.28473169 207.4375 219.125 C207.12296875 218.26003906 206.8084375 217.39507813 206.484375 216.50390625 C204.15023579 210.32239351 201.08206798 204.64557255 197.828125 198.91015625 C196.4375 196.125 196.4375 196.125 196.4375 193.125 C195.7775 193.125 195.1175 193.125 194.4375 193.125 C191.27603821 187.89642857 191.27603821 187.89642857 192 184.4375 C193.55829107 181.93068393 194.90855831 180.62655913 197.4375 179.125 C198.0975 179.125 198.7575 179.125 199.4375 179.125 C199.4375 178.465 199.4375 177.805 199.4375 177.125 C200.0975 177.125 200.7575 177.125 201.4375 177.125 C201.4375 176.465 201.4375 175.805 201.4375 175.125 C203.13024284 173.56067213 204.89319852 172.07171428 206.6875 170.625 C207.66203125 169.8309375 208.6365625 169.036875 209.640625 168.21875 C211.88644762 166.53751966 213.8840803 165.24364101 216.4375 164.125 C216.4375 163.465 216.4375 162.805 216.4375 162.125 C221.91369048 157.125 221.91369048 157.125 224.4375 157.125 C224.4375 156.465 224.4375 155.805 224.4375 155.125 C226.13024284 153.56067213 227.89319852 152.07171428 229.6875 150.625 C230.66203125 149.8309375 231.6365625 149.036875 232.640625 148.21875 C234.88644762 146.53751966 236.8840803 145.24364101 239.4375 144.125 C239.4375 143.465 239.4375 142.805 239.4375 142.125 C244.91369048 137.125 244.91369048 137.125 247.4375 137.125 C247.4375 136.465 247.4375 135.805 247.4375 135.125 C250.57256611 135.46089994 251.462749 136.15165172 253.6875 138.5 C255.4375 141.125 255.4375 141.125 255.4375 144.125 C256.0975 144.125 256.7575 144.125 257.4375 144.125 C257.705625 144.61226562 257.97375 145.09953125 258.25 145.6015625 C258.641875 146.31054688 259.03375 147.01953125 259.4375 147.75 C259.89640625 148.58273437 260.3553125 149.41546875 260.828125 150.2734375 C261.93410126 152.23305562 263.071469 154.17518343 264.234375 156.1015625 C269.89506524 165.58887934 274.19144905 175.47738211 278.40625 185.67822266 C279.39239122 188.01797345 280.43013238 190.32701509 281.484375 192.63671875 C283.60110032 197.3712526 285.30814157 202.2041529 286.9375 207.125 C287.38923584 208.48008667 287.38923584 208.48008667 287.85009766 209.86254883 C290.22535826 217.14229455 292.09372435 224.46868484 293.7109375 231.94921875 C294.27779012 235.00264251 294.27779012 235.00264251 295.4375 237.125 C295.61670365 238.49605011 295.75739136 239.87229881 295.875 241.25 C296.24670836 244.90900416 296.96780428 248.31610891 297.8984375 251.87890625 C305.32868545 282.8382727 305.42908934 324.54106095 297.375 355.375 C296.67129606 358.18981574 296.28335203 360.47224012 296.0625 363.3125 C295.57600047 368.36862008 294.03581324 372.97142504 292.48046875 377.7890625 C291.49343351 380.94609655 290.65565856 384.09899544 289.875 387.3125 C287.96704114 395.10846095 285.85316331 402.50097891 282.46484375 409.7890625 C281.35949329 412.30236886 280.45847206 414.84252698 279.5625 417.4375 C277.36219098 423.60867919 274.43522194 429.31032327 271.4375 435.125 C270.76074219 436.52492188 270.76074219 436.52492188 270.0703125 437.953125 C263.61529276 451.30079294 255.84274652 463.92608114 247.4375 476.125 C246.78394531 477.10082031 246.13039063 478.07664062 245.45703125 479.08203125 C244.83183594 480.00371094 244.20664062 480.92539062 243.5625 481.875 C243.00820313 482.69484375 242.45390625 483.5146875 241.8828125 484.359375 C241.16738281 485.23335937 241.16738281 485.23335937 240.4375 486.125 C239.7775 486.125 239.1175 486.125 238.4375 486.125 C238.19 486.66125 237.9425 487.1975 237.6875 487.75 C236.13097463 490.7073982 234.40314327 493.42224051 232.4375 496.125 C231.7775 496.125 231.1175 496.125 230.4375 496.125 C230.21707031 496.66382813 229.99664063 497.20265625 229.76953125 497.7578125 C227.9919585 500.91678343 225.60259972 503.38749777 223.125 506 C222.16918934 507.01693052 221.21475695 508.03515826 220.26171875 509.0546875 C219.7929834 509.55452148 219.32424805 510.05435547 218.84130859 510.56933594 C217.39766385 512.16914538 216.05301915 513.82545111 214.70703125 515.5078125 C213.95808594 516.37148438 213.20914063 517.23515625 212.4375 518.125 C211.7775 518.125 211.1175 518.125 210.4375 518.125 C210.4375 518.785 210.4375 519.445 210.4375 520.125 C208.93359375 521.640625 208.93359375 521.640625 206.875 523.375 C206.14925781 523.98988281 205.42351562 524.60476563 204.67578125 525.23828125 C203.93714844 525.86089844 203.19851563 526.48351562 202.4375 527.125 C201.77105469 527.71667969 201.10460937 528.30835938 200.41796875 528.91796875 C199.49951172 529.73201172 199.49951172 529.73201172 198.5625 530.5625 C198.00820313 531.05621094 197.45390625 531.54992187 196.8828125 532.05859375 C195.4375 533.125 195.4375 533.125 193.4375 533.125 C193.1075 534.115 192.7775 535.105 192.4375 536.125 C191.02978516 537.44018555 191.02978516 537.44018555 189.2265625 538.76171875 C188.56358154 539.25317383 187.90060059 539.74462891 187.2175293 540.25097656 C186.50636963 540.7662793 185.79520996 541.28158203 185.0625 541.8125 C184.34167236 542.34198242 183.62084473 542.87146484 182.87817383 543.41699219 C181.42073035 544.48644343 179.96118685 545.55303891 178.49951172 546.61669922 C176.66494143 547.9586333 174.84657778 549.31848761 173.03515625 550.69140625 C172.07480469 551.41199219 171.11445312 552.13257813 170.125 552.875 C169.28324219 553.50921875 168.44148438 554.1434375 167.57421875 554.796875 C165.4375 556.125 165.4375 556.125 162.4375 556.125 C162.4375 556.785 162.4375 557.445 162.4375 558.125 C161.48875 558.66125 160.54 559.1975 159.5625 559.75 C157.48275069 560.92962065 155.43258982 562.12811863 153.4140625 563.41015625 C146.96648276 567.47100033 140.2118752 570.69481436 133.30175781 573.87768555 C129.73266521 575.52837254 126.24953027 577.18823628 122.875 579.2109375 C119.04757779 581.34211577 115.26711969 582.74850433 111.125 584.125 C109.6113864 584.64149528 108.09836032 585.15971565 106.5859375 585.6796875 C105.50650879 586.0504541 105.50650879 586.0504541 104.40527344 586.42871094 C101.9831643 587.28576494 99.61688681 588.25134676 97.25 589.25 C91.14634125 591.75166966 84.79472599 593.39956096 78.4375 595.125 C77.62772705 595.36057617 76.8179541 595.59615234 75.98364258 595.83886719 C69.04688951 597.82097517 62.12408055 599.14033013 55 600.25 C52.89691467 600.58455274 50.79404024 600.92043472 48.69140625 601.2578125 C47.77689697 601.40105957 46.8623877 601.54430664 45.92016602 601.69189453 C43.48881585 602.08297317 43.48881585 602.08297317 41.33911133 602.66162109 C38.13576401 603.4422031 34.84479663 603.46239081 31.5625 603.625 C26.10955155 603.8853191 26.10955155 603.8853191 20.70654297 604.63427734 C16.85246233 605.21282119 13.07392103 605.26847724 9.1875 605.2578125 C8.41116211 605.25876923 7.63482422 605.25972595 6.83496094 605.26071167 C5.20117105 605.26138913 3.5673784 605.25956525 1.93359375 605.25537109 C-0.55474951 605.25001668 -3.0429123 605.25533084 -5.53125 605.26171875 C-7.12500039 605.26105789 -8.71875068 605.25977657 -10.3125 605.2578125 C-11.05016602 605.25983673 -11.78783203 605.26186096 -12.54785156 605.26394653 C-16.66435216 605.24543411 -20.51971072 604.87650456 -24.5625 604.125 C-26.46471773 604.01676 -28.36720597 603.91017839 -30.27099609 603.83447266 C-42.84886897 603.3294896 -55.01342574 601.3317844 -67.109375 597.80078125 C-69.48340122 597.14678995 -71.82644997 596.67933751 -74.25 596.25 C-95.60315326 592.15533828 -116.28092331 582.96236907 -135.54003906 573.15234375 C-138.7893258 571.50181278 -142.05125109 569.87672862 -145.3125 568.25 C-148.72916667 566.54166667 -152.14583333 564.83333333 -155.5625 563.125 C-155.5625 562.465 -155.5625 561.805 -155.5625 561.125 C-156.45195312 560.9384082 -156.45195312 560.9384082 -157.359375 560.74804688 C-160.83415583 559.76537393 -163.61051998 557.64042008 -166.5625 555.625 C-167.22531982 555.17721191 -167.88813965 554.72942383 -168.57104492 554.26806641 C-177.49043132 548.19479166 -186.02206415 541.64275304 -194.40625 534.8515625 C-195.84953358 533.69588978 -197.33048656 532.58583135 -198.84375 531.5234375 C-199.4109375 531.06195312 -199.978125 530.60046875 -200.5625 530.125 C-200.5625 529.465 -200.5625 528.805 -200.5625 528.125 C-201.14773438 527.86847656 -201.73296875 527.61195313 -202.3359375 527.34765625 C-204.75484608 526.01937838 -206.29448872 524.55975199 -208.1875 522.5625 C-210.60771959 519.98484611 -210.60771959 519.98484611 -213.5625 518.125 C-213.5625 517.465 -213.5625 516.805 -213.5625 516.125 C-214.2225 516.125 -214.8825 516.125 -215.5625 516.125 C-217.18359375 514.48046875 -217.18359375 514.48046875 -219 512.3125 C-221.53589332 509.30036735 -221.53589332 509.30036735 -224.28515625 506.48828125 C-225.5625 505.125 -225.5625 505.125 -225.5625 503.125 C-226.2225 503.125 -226.8825 503.125 -227.5625 503.125 C-229.5078125 501.0078125 -229.5078125 501.0078125 -231.6875 498.25 C-232.77417969 496.89261719 -232.77417969 496.89261719 -233.8828125 495.5078125 C-235.5625 493.125 -235.5625 493.125 -235.5625 491.125 C-236.2225 491.125 -236.8825 491.125 -237.5625 491.125 C-239.00776736 489.38951831 -240.3712222 487.58524037 -241.6875 485.75 C-242.77417969 484.25339844 -242.77417969 484.25339844 -243.8828125 482.7265625 C-245.5625 480.125 -245.5625 480.125 -245.5625 478.125 C-246.2225 478.125 -246.8825 478.125 -247.5625 478.125 C-249.25390625 475.859375 -249.25390625 475.859375 -251.125 472.875 C-251.74503906 471.90046875 -252.36507812 470.9259375 -253.00390625 469.921875 C-254.32187184 467.55680391 -255.10397441 465.76309243 -255.5625 463.125 C-256.2225 463.125 -256.8825 463.125 -257.5625 463.125 C-262.34942961 454.94370213 -266.8707311 446.7078506 -271.01953125 438.18359375 C-272.49728048 435.15825116 -272.49728048 435.15825116 -274.14453125 432.50390625 C-275.49233258 430.24271889 -276.48899334 428.07600837 -277.4375 425.625 C-277.77394531 424.76132812 -278.11039063 423.89765625 -278.45703125 423.0078125 C-278.82183594 422.05648438 -279.18664062 421.10515625 -279.5625 420.125 C-280.18705078 418.51238281 -280.18705078 418.51238281 -280.82421875 416.8671875 C-283.10408252 410.96555815 -285.35207899 405.05294727 -287.5625 399.125 C-287.81902344 398.47144531 -288.07554687 397.81789063 -288.33984375 397.14453125 C-289.85845217 393.23845885 -291.0769632 389.38417378 -292.03564453 385.29370117 C-292.62224864 382.87905599 -293.30755046 380.50193847 -293.9921875 378.11328125 C-295.62078186 372.17128646 -296.69973757 366.20171446 -297.6875 360.125 C-298.02138858 358.10382713 -298.35723541 356.08297649 -298.6953125 354.0625 C-298.83855957 353.18464844 -298.98180664 352.30679687 -299.12939453 351.40234375 C-299.53879094 348.97376755 -299.53879094 348.97376755 -300.5625 346.125 C-302.6239004 332.68533895 -302.88388259 319.03538498 -302.82324219 305.46826172 C-302.81250287 302.62575983 -302.82323257 299.78388954 -302.8359375 296.94140625 C-302.85233515 275.62319733 -300.78077752 254.86921331 -295.359375 234.20703125 C-294.79524246 232.02516569 -294.26751921 229.83373605 -293.765625 227.63671875 C-289.87383704 210.92592747 -284.30446949 194.45497937 -276.5625 179.125 C-276.10875 178.21621094 -275.655 177.30742188 -275.1875 176.37109375 C-274.34195744 174.68252513 -273.49203019 172.99614145 -272.63671875 171.3125 C-271.74370122 169.49399158 -270.95188275 167.6262122 -270.1875 165.75 C-268.15529469 161.21661892 -265.64474895 157.05076407 -263.0859375 152.796875 C-261.46354677 150.15345568 -261.46354677 150.15345568 -260.5625 147.125 C-259.9025 147.125 -259.2425 147.125 -258.5625 147.125 C-258.43810547 146.53203125 -258.31371094 145.9390625 -258.18554688 145.328125 C-257.20289854 141.85343119 -255.07813155 139.07676795 -253.0625 136.125 C-252.61253662 135.46000488 -252.16257324 134.79500977 -251.69897461 134.10986328 C-245.03705595 124.33748954 -237.84175164 115.09958391 -230.140625 106.1328125 C-228.80524908 104.57487393 -227.47318272 103.01306672 -226.19335938 101.40917969 C-225.02376074 99.9476095 -223.79725919 98.53195349 -222.5625 97.125 C-221.9025 97.125 -221.2425 97.125 -220.5625 97.125 C-220.3459375 96.58359375 -220.129375 96.0421875 -219.90625 95.484375 C-218.09750003 92.30854656 -215.64526201 89.91771919 -213.0625 87.375 C-212.56363281 86.86839844 -212.06476563 86.36179687 -211.55078125 85.83984375 C-207.81591139 82.125 -207.81591139 82.125 -205.5625 82.125 C-205.0675 80.64 -205.0675 80.64 -204.5625 79.125 C-203.9025 79.125 -203.2425 79.125 -202.5625 79.125 C-202.5625 78.465 -202.5625 77.805 -202.5625 77.125 C-199.11806375 73.87398782 -195.28993286 71.04436753 -191.5625 68.125 C-190.86125 67.57150879 -190.16 67.01801758 -189.4375 66.44775391 C-187.17340959 64.66468444 -184.90073632 62.8931752 -182.625 61.125 C-181.891604 60.54903076 -181.15820801 59.97306152 -180.40258789 59.37963867 C-179.70383545 58.84185791 -179.00508301 58.30407715 -178.28515625 57.75 C-177.35328491 57.02683594 -177.35328491 57.02683594 -176.40258789 56.2890625 C-174.45566607 55.05741552 -172.81361656 54.55289562 -170.5625 54.125 C-170.5625 53.465 -170.5625 52.805 -170.5625 52.125 C-168.15522083 50.44564339 -165.75610039 48.8942393 -163.25 47.375 C-162.51523437 46.92398926 -161.78046875 46.47297852 -161.0234375 46.00830078 C-150.81282863 39.78313754 -140.23216599 34.38323919 -129.51489258 29.09667969 C-128.19503667 28.43980505 -126.87983447 27.77350877 -125.5690918 27.09863281 C-121.05665466 24.78613917 -116.51474097 22.85346707 -111.75 21.125 C-111.05277832 20.8686377 -110.35555664 20.61227539 -109.63720703 20.34814453 C-108.24659981 19.83736812 -106.85534195 19.32835895 -105.46337891 18.82128906 C-103.82950681 18.22280419 -102.20126884 17.60897773 -100.57421875 16.9921875 C-93.35221092 14.2745727 -85.99763595 12.17607199 -78.5625 10.125 C-77.64726562 9.856875 -76.73203125 9.58875 -75.7890625 9.3125 C-67.81815376 7.01458036 -59.71942875 5.57166973 -51.5625 4.125 C-50.56476563 3.92777344 -49.56703125 3.73054688 -48.5390625 3.52734375 C-41.51277853 2.19884468 -34.5429651 1.75196866 -27.41088867 1.46630859 C-23.81575145 1.3195683 -20.34015444 1.09454484 -16.76953125 0.60546875 C-11.20051699 -0.14375391 -5.6089711 -0.01983137 0 0 Z" fill="blue"   transform="translate(527.5625,374.875)"/>
<path d="M0 0 C2.98916179 -0.04547826 5.96070693 0.00030025 8.94921875 0.08203125 C9.65836426 0.09991699 10.36750977 0.11780273 11.09814453 0.13623047 C21.37273443 0.42808591 31.02692408 1.18902485 40.94921875 4.08203125 C41.8942627 4.35321777 41.8942627 4.35321777 42.85839844 4.62988281 C55.41587552 8.26542113 67.03914804 12.8974586 78.51171875 19.20703125 C79.29853027 19.63910889 80.0853418 20.07118652 80.89599609 20.51635742 C81.63672363 20.93248291 82.37745117 21.3486084 83.140625 21.77734375 C84.13364624 22.33446045 84.13364624 22.33446045 85.14672852 22.90283203 C87.00740455 24.12009673 88.43795728 25.45820726 89.94921875 27.08203125 C89.13671875 29.01953125 89.13671875 29.01953125 87.94921875 31.08203125 C86.95921875 31.41203125 85.96921875 31.74203125 84.94921875 32.08203125 C84.94921875 32.74203125 84.94921875 33.40203125 84.94921875 34.08203125 C83.25647591 35.64635912 81.49352023 37.13531697 79.69921875 38.58203125 C78.7246875 39.37609375 77.75015625 40.17015625 76.74609375 40.98828125 C74.50027113 42.66951159 72.50263845 43.96339024 69.94921875 45.08203125 C69.94921875 45.74203125 69.94921875 46.40203125 69.94921875 47.08203125 C64.47302827 52.08203125 64.47302827 52.08203125 61.94921875 52.08203125 C61.94921875 52.74203125 61.94921875 53.40203125 61.94921875 54.08203125 C57.47863051 58.08203125 57.47863051 58.08203125 54.94921875 58.08203125 C54.94921875 58.74203125 54.94921875 59.40203125 54.94921875 60.08203125 C53.74265625 60.48421875 53.74265625 60.48421875 52.51171875 60.89453125 C51.66609375 61.28640625 50.82046875 61.67828125 49.94921875 62.08203125 C49.61921875 63.07203125 49.28921875 64.06203125 48.94921875 65.08203125 C48.28921875 65.08203125 47.62921875 65.08203125 46.94921875 65.08203125 C46.94921875 65.74203125 46.94921875 66.40203125 46.94921875 67.08203125 C44.83203125 69.02734375 44.83203125 69.02734375 42.07421875 71.20703125 C41.16929687 71.93148437 40.264375 72.6559375 39.33203125 73.40234375 C36.94921875 75.08203125 36.94921875 75.08203125 34.94921875 75.08203125 C34.94921875 75.74203125 34.94921875 76.40203125 34.94921875 77.08203125 C33.41726603 78.45415426 31.82000794 79.75357585 30.19921875 81.01953125 C25.18870507 85.00974578 20.46632174 89.20301618 15.83496094 93.62670898 C12.16032177 97.08203125 12.16032177 97.08203125 9.94921875 97.08203125 C9.94921875 97.74203125 9.94921875 98.40203125 9.94921875 99.08203125 C8.95921875 99.57703125 8.95921875 99.57703125 7.94921875 100.08203125 C8.47190341 102.84479302 9.05791462 105.40811885 9.94921875 108.08203125 C10.93921875 108.41203125 11.92921875 108.74203125 12.94921875 109.08203125 C12.94921875 109.74203125 12.94921875 110.40203125 12.94921875 111.08203125 C13.60921875 111.08203125 14.26921875 111.08203125 14.94921875 111.08203125 C16.89453125 113.19921875 16.89453125 113.19921875 19.07421875 115.95703125 C20.16089844 117.31441406 20.16089844 117.31441406 21.26953125 118.69921875 C22.94921875 121.08203125 22.94921875 121.08203125 22.94921875 123.08203125 C23.60921875 123.08203125 24.26921875 123.08203125 24.94921875 123.08203125 C29.94921875 128.55822173 29.94921875 128.55822173 29.94921875 131.08203125 C30.60921875 131.08203125 31.26921875 131.08203125 31.94921875 131.08203125 C33.51354662 132.77477409 35.00250447 134.53772977 36.44921875 136.33203125 C37.24328125 137.3065625 38.03734375 138.28109375 38.85546875 139.28515625 C40.53669909 141.53097887 41.83057774 143.52861155 42.94921875 146.08203125 C43.60921875 146.08203125 44.26921875 146.08203125 44.94921875 146.08203125 C46.67578125 147.76171875 46.67578125 147.76171875 48.57421875 149.95703125 C49.20585938 150.67632813 49.8375 151.395625 50.48828125 152.13671875 C51.94921875 154.08203125 51.94921875 154.08203125 51.94921875 156.08203125 C52.73296875 155.58703125 53.51671875 155.09203125 54.32421875 154.58203125 C56.94921875 153.08203125 56.94921875 153.08203125 58.94921875 153.08203125 C58.94921875 152.42203125 58.94921875 151.76203125 58.94921875 151.08203125 C60.5835463 149.60433907 62.28398243 148.19933806 64.01171875 146.83203125 C67.40842507 144.12254515 70.76235523 141.4040298 74.01171875 138.51953125 C76.94921875 136.08203125 76.94921875 136.08203125 78.94921875 136.08203125 C79.27921875 135.09203125 79.60921875 134.10203125 79.94921875 133.08203125 C80.60921875 133.08203125 81.26921875 133.08203125 81.94921875 133.08203125 C81.94921875 132.42203125 81.94921875 131.76203125 81.94921875 131.08203125 C84.06640625 129.13671875 84.06640625 129.13671875 86.82421875 126.95703125 C87.72914063 126.23257813 88.6340625 125.508125 89.56640625 124.76171875 C91.94921875 123.08203125 91.94921875 123.08203125 93.94921875 123.08203125 C93.94921875 122.42203125 93.94921875 121.76203125 93.94921875 121.08203125 C99.42540923 116.08203125 99.42540923 116.08203125 101.94921875 116.08203125 C101.94921875 115.42203125 101.94921875 114.76203125 101.94921875 114.08203125 C103.64196159 112.51770338 105.40491727 111.02874553 107.19921875 109.58203125 C108.17375 108.78796875 109.14828125 107.99390625 110.15234375 107.17578125 C112.39816637 105.49455091 114.39579905 104.20067226 116.94921875 103.08203125 C116.94921875 102.42203125 116.94921875 101.76203125 116.94921875 101.08203125 C118.66254629 99.49669423 120.44610922 97.9866191 122.26171875 96.51953125 C123.24785156 95.71386719 124.23398437 94.90820312 125.25 94.078125 C127.94921875 92.08203125 127.94921875 92.08203125 130.94921875 91.08203125 C130.94921875 90.42203125 130.94921875 89.76203125 130.94921875 89.08203125 C132.90848938 87.36766945 134.90802087 85.69797957 136.94921875 84.08203125 C141.74827105 86.11738815 143.0368995 89.44779775 144.94921875 94.08203125 C148.27611074 102.59556852 151.00784621 111.14947321 152.94921875 120.08203125 C153.11188232 120.78977188 153.2745459 121.49751251 153.44213867 122.22669983 C154.74346429 128.19641135 155.25660397 133.8371456 155.25 139.9375 C155.25428513 140.84220535 155.25857025 141.74691071 155.26298523 142.67903137 C155.268687 144.58069021 155.26925975 146.48237083 155.26489258 148.3840332 C155.26174535 151.24534691 155.28520052 154.10561135 155.31054688 156.96679688 C155.34652062 167.6382765 154.88527471 177.75903988 151.94921875 188.08203125 C151.61921875 188.41203125 151.28921875 188.74203125 150.94921875 189.08203125 C150.84609375 190.07203125 150.74296875 191.06203125 150.63671875 192.08203125 C150.12640422 195.99710051 148.71704186 199.16341722 147.04296875 202.71484375 C145.96975453 205.03758595 145.04608413 207.37852744 144.13671875 209.76953125 C138.41136146 224.1386186 130.57225892 238.71250718 119.94921875 250.08203125 C119.28921875 250.08203125 118.62921875 250.08203125 117.94921875 250.08203125 C117.70171875 250.63890625 117.45421875 251.19578125 117.19921875 251.76953125 C105.86583373 272.73629353 75.80592215 286.67444926 54.94921875 295.08203125 C54.08039063 295.44039062 53.2115625 295.79875 52.31640625 296.16796875 C49.68796676 297.18291073 47.03347607 297.86749501 44.29296875 298.51171875 C42.61739977 298.91944053 40.95126398 299.36674188 39.29296875 299.83984375 C17.25285245 305.94234907 -12.17138751 305.56481458 -34.05078125 299.08203125 C-35.0871875 298.79328125 -36.12359375 298.50453125 -37.19140625 298.20703125 C-45.44672757 295.81418449 -53.23526582 292.64388697 -61.05078125 289.08203125 C-62.32695312 288.51548828 -62.32695312 288.51548828 -63.62890625 287.9375 C-75.43155932 282.40744898 -86.07941606 274.38545899 -96.05078125 266.08203125 C-96.96601563 265.38851563 -97.88125 264.695 -98.82421875 263.98046875 C-99.55898438 263.35398437 -100.29375 262.7275 -101.05078125 262.08203125 C-101.05078125 261.42203125 -101.05078125 260.76203125 -101.05078125 260.08203125 C-102.04078125 259.75203125 -103.03078125 259.42203125 -104.05078125 259.08203125 C-104.05078125 258.42203125 -104.05078125 257.76203125 -104.05078125 257.08203125 C-104.71078125 257.08203125 -105.37078125 257.08203125 -106.05078125 257.08203125 C-109.30786421 253.63882927 -112.14662023 249.82456128 -115.05078125 246.08203125 C-115.50759277 245.49873047 -115.9644043 244.91542969 -116.43505859 244.31445312 C-122.43084328 236.60825916 -127.48343507 228.9639888 -131.61328125 220.10546875 C-132.94297305 217.30878001 -134.45418963 214.73092189 -136.05078125 212.08203125 C-136.74336354 210.09085717 -137.4082576 208.08991765 -138.05078125 206.08203125 C-138.52257812 205.04304687 -138.994375 204.0040625 -139.48046875 202.93359375 C-141.25404261 198.84230581 -142.22789474 194.67714301 -143.17578125 190.33203125 C-144.42259503 184.65655259 -144.42259503 184.65655259 -146.05078125 179.08203125 C-149.67039361 156.94162864 -149.44661054 133.69218174 -143.05078125 112.08203125 C-142.83679688 111.35371094 -142.6228125 110.62539063 -142.40234375 109.875 C-137.20789311 93.40553591 -129.87145595 78.27628578 -120.05078125 64.08203125 C-119.35210937 62.97601562 -118.6534375 61.87 -117.93359375 60.73046875 C-117.31226563 59.85648438 -116.6909375 58.9825 -116.05078125 58.08203125 C-115.39078125 58.08203125 -114.73078125 58.08203125 -114.05078125 58.08203125 C-113.72078125 56.76203125 -113.39078125 55.44203125 -113.05078125 54.08203125 C-112.39078125 54.08203125 -111.73078125 54.08203125 -111.05078125 54.08203125 C-110.78289795 53.48962646 -110.51501465 52.89722168 -110.23901367 52.28686523 C-109.03918327 50.06051054 -107.81653411 48.58970333 -106.0390625 46.8046875 C-105.14864258 45.91040039 -105.14864258 45.91040039 -104.24023438 44.99804688 C-103.62083984 44.38638672 -103.00144531 43.77472656 -102.36328125 43.14453125 C-101.76322266 42.53673828 -101.16316406 41.92894531 -100.54492188 41.30273438 C-90.28011647 31.08203125 -90.28011647 31.08203125 -86.05078125 31.08203125 C-86.05078125 30.42203125 -86.05078125 29.76203125 -86.05078125 29.08203125 C-83.48931555 26.78554476 -82.57110553 26.08203125 -79.05078125 26.08203125 C-79.05078125 25.42203125 -79.05078125 24.76203125 -79.05078125 24.08203125 C-76.14529243 22.0403364 -74.64936079 21.08203125 -71.05078125 21.08203125 C-71.05078125 20.42203125 -71.05078125 19.76203125 -71.05078125 19.08203125 C-54.69304807 10.63220835 -54.69304807 10.63220835 -46.05078125 8.08203125 C-45.34824219 7.78167969 -44.64570313 7.48132813 -43.921875 7.171875 C-29.69389288 1.77104913 -15.0466663 0.40458386 0 0 Z " fill="blue"  transform="translate(523.05078125,525.91796875)"/>
</svg>
